<svg width="50" height="50" viewBox="0 0 50 50" fill="none" xmlns="http://www.w3.org/2000/svg">
    <g clip-path="url(#clip0_1901_11215)">
        <path d="M25 26.3823C25.8615 26.3823 26.5625 27.0833 26.5625 27.9448C26.5625 28.3763 26.9123 28.7261 27.3438 28.7261C27.7752 28.7261 28.125 28.3763 28.125 27.9448C28.125 26.4914 27.1275 25.2665 25.7812 24.9188V24.0386C25.7812 23.6071 25.4314 23.2573 25 23.2573C24.5686 23.2573 24.2188 23.6071 24.2188 24.0386V24.9188C22.8725 25.2666 21.875 26.4914 21.875 27.9448C21.875 29.668 23.2769 31.0698 25 31.0698C25.8615 31.0698 26.5625 31.7708 26.5625 32.6323C26.5625 33.4938 25.8615 34.1948 25 34.1948C24.1385 34.1948 23.4375 33.4938 23.4375 32.6323C23.4375 32.2009 23.0877 31.8511 22.6562 31.8511C22.2248 31.8511 21.875 32.2009 21.875 32.6323C21.875 34.0857 22.8725 35.3106 24.2188 35.6584V36.5386C24.2188 36.97 24.5686 37.3198 25 37.3198C25.4314 37.3198 25.7812 36.97 25.7812 36.5386V35.6584C27.1275 35.3105 28.125 34.0857 28.125 32.6323C28.125 30.9092 26.7231 29.5073 25 29.5073C24.1385 29.5073 23.4375 28.8063 23.4375 27.9448C23.4375 27.0833 24.1385 26.3823 25 26.3823Z" fill="#8FBA44"/>
        <path d="M25 20.1323C19.3998 20.1323 14.8438 24.6884 14.8438 30.2886C14.8438 35.8888 19.3998 40.4448 25 40.4448C30.6002 40.4448 35.1562 35.8888 35.1562 30.2886C35.1562 24.6884 30.6002 20.1323 25 20.1323ZM25 38.8823C20.2614 38.8823 16.4062 35.0271 16.4062 30.2886C16.4062 25.55 20.2614 21.6948 25 21.6948C29.7386 21.6948 33.5938 25.55 33.5938 30.2886C33.5938 35.0271 29.7386 38.8823 25 38.8823Z" fill="#8FBA44"/>
        <path d="M47.5647 17.0075L47.0653 13.012C46.9036 11.7181 45.7187 10.802 44.4155 10.9816L43.2846 11.1433L42.55 8.20511C42.2363 6.94974 40.9538 6.16419 39.6591 6.51253L2.22549 17.0105C0.987891 17.0723 0 18.0986 0 19.3512V41.2262C0 42.5185 1.05146 43.57 2.34375 43.57H47.6562C48.9485 43.57 50 42.5185 50 41.2262V19.3512C50 18.1409 49.0629 17.0075 47.5647 17.0075ZM44.6328 12.5288C45.0663 12.4695 45.4611 12.7753 45.5147 13.2059L45.9899 17.0076H13.3225L44.6328 12.5288ZM40.0732 8.01917C40.4958 7.9057 40.928 8.1597 41.0343 8.58411L41.7297 11.3658L13.9927 15.3332L40.0732 8.01917ZM48.4375 41.2262C48.4375 41.657 48.087 42.0075 47.6562 42.0075H2.34375C1.91299 42.0075 1.5625 41.657 1.5625 41.2262V19.3512C1.5625 18.921 1.91211 18.5709 2.34209 18.5701C2.58955 18.5696 -1.55391 18.57 47.6562 18.57C48.087 18.57 48.4375 18.9204 48.4375 19.3512V41.2262Z" fill="#8FBA44"/>
        <path d="M46.0938 22.4761C45.2322 22.4761 44.5312 21.7751 44.5312 20.9136C44.5312 20.4821 44.1814 20.1323 43.75 20.1323H33.5938C33.1623 20.1323 32.8125 20.4821 32.8125 20.9136C32.8125 21.345 33.1623 21.6948 33.5938 21.6948H43.0677C43.3509 22.7914 44.216 23.6564 45.3125 23.9396V36.6374C44.2159 36.9206 43.3509 37.7857 43.0677 38.8822H33.5938C33.1623 38.8822 32.8125 39.232 32.8125 39.6635C32.8125 40.0949 33.1623 40.4447 33.5938 40.4447H43.75C44.1814 40.4447 44.5312 40.0949 44.5312 39.6635C44.5312 38.802 45.2322 38.101 46.0938 38.101C46.5252 38.101 46.875 37.7512 46.875 37.3197V23.2572C46.875 22.8259 46.5252 22.4761 46.0938 22.4761Z" fill="#8FBA44"/>
        <path d="M16.4062 38.8823H6.93232C6.64912 37.7857 5.78398 36.9207 4.6875 36.6375V23.9396C5.78408 23.6564 6.64912 22.7913 6.93232 21.6948H16.4062C16.8377 21.6948 17.1875 21.345 17.1875 20.9136C17.1875 20.4821 16.8377 20.1323 16.4062 20.1323H6.25C5.81855 20.1323 5.46875 20.4821 5.46875 20.9136C5.46875 21.7751 4.76777 22.4761 3.90625 22.4761C3.4748 22.4761 3.125 22.8259 3.125 23.2573V37.3198C3.125 37.7513 3.4748 38.1011 3.90625 38.1011C4.76777 38.1011 5.46875 38.802 5.46875 39.6636C5.46875 40.095 5.81855 40.4448 6.25 40.4448H16.4062C16.8377 40.4448 17.1875 40.095 17.1875 39.6636C17.1875 39.2321 16.8377 38.8823 16.4062 38.8823Z" fill="#8FBA44"/>
        <path d="M7.03125 30.2886C7.03125 31.5809 8.08271 32.6323 9.375 32.6323C10.6673 32.6323 11.7188 31.5809 11.7188 30.2886C11.7188 28.9963 10.6673 27.9448 9.375 27.9448C8.08271 27.9448 7.03125 28.9963 7.03125 30.2886ZM10.1562 30.2886C10.1562 30.7193 9.80576 31.0698 9.375 31.0698C8.94424 31.0698 8.59375 30.7193 8.59375 30.2886C8.59375 29.8578 8.94424 29.5073 9.375 29.5073C9.80576 29.5073 10.1562 29.8578 10.1562 30.2886Z" fill="#8FBA44"/>
        <path d="M42.9688 30.2886C42.9688 28.9963 41.9173 27.9448 40.625 27.9448C39.3327 27.9448 38.2812 28.9963 38.2812 30.2886C38.2812 31.5809 39.3327 32.6323 40.625 32.6323C41.9173 32.6323 42.9688 31.581 42.9688 30.2886ZM39.8438 30.2886C39.8438 29.8578 40.1942 29.5073 40.625 29.5073C41.0558 29.5073 41.4062 29.8578 41.4062 30.2886C41.4062 30.7193 41.0558 31.0698 40.625 31.0698C40.1942 31.0698 39.8438 30.7193 39.8438 30.2886Z" fill="#8FBA44"/>
    </g>
    <defs>
        <clipPath id="clip0_1901_11215">
            <rect width="50" height="50" fill="white"/>
        </clipPath>
    </defs>
</svg>
