<svg width="50" height="50" viewBox="0 0 50 50" fill="none" xmlns="http://www.w3.org/2000/svg">
    <g clip-path="url(#clip0_1901_11224)">
        <path d="M50 19.8272C50 18.7987 49.1633 17.9621 48.1348 17.9621H46.9796C46.5339 17.9621 46.1246 18.1196 45.8034 18.3814L44.8488 15.3558C44.4642 14.1366 43.3467 13.3175 42.068 13.3175H29.4338C29.1323 11.5466 28.281 10.082 27.3312 8.59818H28.2781C30.6779 8.59818 30.6818 4.86784 28.2781 4.86784H27.1228C26.6771 4.86784 26.2678 5.02536 25.9467 5.28702L24.9921 2.26129C24.6075 1.04226 23.4899 0.223145 22.2113 0.223145H13.7527C12.8349 0.223145 12.7932 1.68986 13.7527 1.68986H22.2113C22.8468 1.68986 23.4022 2.09682 23.5934 2.70258L24.9907 7.13137H5.08894L6.48623 2.70258C6.67739 2.09682 7.23278 1.68986 7.86836 1.68986H8.91002C9.82779 1.68986 9.86954 0.223145 8.91002 0.223145H7.86826C6.58948 0.223145 5.47194 1.04226 5.08737 2.26129L4.13283 5.28702C3.81162 5.02527 3.40231 4.86784 2.95663 4.86784H1.80135C-0.598492 4.86784 -0.602404 8.59818 1.80135 8.59818H2.74835C1.48111 10.5777 0.506139 12.5455 0.506139 14.965V18.6946V21.8775C0.506139 22.8217 1.2744 23.5899 2.21887 23.5899H3.55827C4.50264 23.5899 5.271 22.8218 5.271 21.8775V19.4279H19.837C19.8088 19.5567 19.7929 19.6901 19.7929 19.8272C19.7929 20.8558 20.6297 21.6925 21.6581 21.6925H22.605C21.6536 23.1788 20.8091 24.6348 20.504 26.41H12.741C11.4622 26.41 10.3447 27.2291 9.96009 28.4482L9.00555 31.4738C8.68434 31.2121 8.27503 31.0546 7.82934 31.0546H6.67406C5.6456 31.0546 4.80889 31.8913 4.80889 32.9197C4.80889 33.9482 5.6456 34.785 6.67406 34.785H7.62107L6.92331 35.8749C5.91294 37.4533 5.37886 39.278 5.37886 41.1518V48.0642C5.37886 49.0083 6.14712 49.7765 7.09159 49.7765H8.43109C9.37546 49.7765 10.1438 49.0084 10.1438 48.0642V45.6147H29.6674V48.0644C29.6674 49.0085 30.4357 49.7767 31.3802 49.7767H32.7196C33.6639 49.7767 34.4323 49.0086 34.4323 48.0644L34.4463 41.152C34.4463 40.2342 32.9796 40.1925 32.9796 41.152V44.148H32.2894L32.2673 42.7094C32.2464 41.3492 31.1227 40.2425 29.7624 40.2425C27.4883 40.2425 25.4283 41.588 24.5143 43.6702L24.3045 44.148H15.5209L15.3112 43.6702C14.3971 41.588 12.337 40.2425 10.0631 40.2425C8.70272 40.2425 7.57903 41.349 7.558 42.7094L7.53561 44.148H6.84547V41.1519C6.84547 39.559 7.29957 38.0077 8.15847 36.6658L9.36245 34.7851H30.4623C31.0693 35.7333 31.7638 36.6769 32.2313 37.7043C32.6115 38.5394 33.9637 37.9697 33.5661 37.0963C33.1944 36.2801 32.6858 35.5381 32.2038 34.7851H33.1508C34.3223 34.7851 35.2215 33.6642 34.9724 32.5222H44.6513V34.9718C44.6513 35.9159 45.4196 36.6841 46.364 36.6841H47.7035C48.6479 36.6841 49.4163 35.916 49.4163 34.9718L49.4301 28.0594C49.4301 26.1855 48.8961 24.3608 47.8857 22.7825L47.188 21.6926H48.1349C49.1633 21.6925 50 20.8558 50 19.8272ZM32.9654 48.0643C32.9654 48.1998 32.855 48.3099 32.7194 48.3099H31.38C31.2444 48.3099 31.134 48.1998 31.134 48.0643V45.6147H31.567H32.9654V48.0643ZM29.7621 41.7093C30.3261 41.7093 30.7918 42.168 30.8005 42.7319L30.8223 44.1479H30.4006H25.908C26.6116 42.6623 28.1109 41.7093 29.7621 41.7093ZM9.02423 42.732C9.03293 42.168 9.49886 41.7093 10.0628 41.7093C11.7139 41.7093 13.2133 42.6623 13.9169 44.1479H9.41027H9.00252L9.02423 42.732ZM8.25772 45.6147H8.67691V48.0644C8.67691 48.1999 8.56661 48.31 8.43089 48.31H7.09149C6.95587 48.31 6.84547 48.1999 6.84547 48.0644V45.6147H8.25772ZM46.581 19.8272C46.581 19.6075 46.7598 19.4288 46.9795 19.4288H48.1347C48.3545 19.4288 48.5332 19.6075 48.5332 19.8272C48.5332 20.0471 48.3545 20.2258 48.1347 20.2258H46.5809V19.8272H46.581ZM43.4501 15.797L44.8474 20.2258H24.9455L26.3428 15.7969C26.3782 15.6847 26.4262 15.5794 26.4848 15.4822C26.486 15.4802 26.487 15.4782 26.4883 15.4763C26.7467 15.0519 27.2094 14.7842 27.7249 14.7842H42.0679C42.7035 14.7842 43.2589 15.1912 43.4501 15.797ZM24.1221 17.9612H21.0358C21.7396 16.4757 23.2384 15.5224 24.8895 15.5224C24.8902 15.5224 24.8908 15.5225 24.8915 15.5225L24.1221 17.9612ZM26.7243 6.73301C26.7243 6.5133 26.9031 6.33455 27.1228 6.33455H28.2781C28.7932 6.33455 28.7932 7.13147 28.2781 7.13147H26.7242V6.73301H26.7243ZM1.40289 6.73301C1.40289 6.5133 1.58163 6.33455 1.80135 6.33455H2.95663C3.17644 6.33455 3.35518 6.5133 3.35518 6.73301V7.13147H1.80135C1.58163 7.13147 1.40289 6.95272 1.40289 6.73301ZM1.97285 14.965C1.97285 12.4816 3.21213 10.5942 4.48993 8.59818H25.5898C26.5489 10.0966 27.5832 11.5329 27.942 13.3175H27.725C26.9253 13.3175 26.1886 13.6379 25.6548 14.1762C25.4092 14.0974 25.1517 14.0557 24.8895 14.0557C22.6155 14.0557 20.5555 15.4012 19.6414 17.4834L19.4316 17.9613H10.6481L10.4383 17.4834C9.52428 15.4012 7.46423 14.0557 5.19024 14.0557C3.82991 14.0557 2.70621 15.1622 2.68519 16.5225L2.66309 17.9613H1.97295L1.97285 14.965ZM3.80419 21.8775C3.80419 22.0129 3.6939 22.1231 3.55818 22.1231H2.21877C2.08315 22.1231 1.97276 22.0129 1.97276 21.8775V19.4279H3.80419V21.8775ZM4.1298 17.9612L4.15161 16.5451C4.16031 15.9811 4.62624 15.5224 5.19014 15.5224C6.84127 15.5224 8.34064 16.4755 9.04427 17.9612H4.1298ZM21.2596 19.8272C21.2596 19.6075 21.4383 19.4288 21.658 19.4288H22.8133C23.033 19.4288 23.2118 19.6075 23.2118 19.8272V20.2258H21.6579C21.4383 20.2258 21.2596 20.0471 21.2596 19.8272ZM6.27551 32.9198C6.27551 32.7001 6.45425 32.5214 6.67396 32.5214H7.82934C8.04916 32.5214 8.2279 32.7001 8.2279 32.9198V33.3184H6.67406C6.45435 33.3184 6.27551 33.1396 6.27551 32.9198ZM9.96156 33.3184L11.3588 28.8895C11.55 28.2837 12.1054 27.8768 12.741 27.8768H27.0839C27.7196 27.8768 28.275 28.2837 28.4661 28.8896L29.8633 33.3184H9.96156ZM33.5494 32.9198C33.5494 33.1396 33.3706 33.3184 33.1509 33.3184H31.597C31.5334 33.029 31.5956 32.5307 31.9869 32.5222H33.1593C33.375 32.5268 33.5494 32.703 33.5494 32.9198ZM40.8919 31.0554C41.5955 29.5699 43.0949 28.6168 44.746 28.6168C45.3101 28.6168 45.7758 29.0755 45.7845 29.6394L45.8064 31.0554H40.8919ZM47.9495 34.9718C47.9495 35.1072 47.8391 35.2174 47.7034 35.2174H46.3639C46.2283 35.2174 46.1179 35.1072 46.1179 34.9718V32.5222H46.5511H47.9495V34.9718ZM47.9633 28.0594V31.0555H47.2733L47.2511 29.6169C47.2302 28.2568 46.1065 27.1501 44.7461 27.1501C42.4722 27.1501 40.4122 28.4955 39.4981 30.5777L39.2883 31.0555H30.6874L29.8649 28.4484C29.4803 27.2292 28.3628 26.4101 27.084 26.4101H21.996C22.3589 24.6243 23.3863 23.1927 24.3466 21.6926H45.4466L46.6505 23.5733C47.5092 24.915 47.9633 26.4663 47.9633 28.0594Z" fill="#8FBA44"/>
    </g>
    <defs>
        <clipPath id="clip0_1901_11224">
            <rect width="50" height="50" fill="white"/>
        </clipPath>
    </defs>
</svg>
