<svg width="50" height="50" viewBox="0 0 50 50" fill="none" xmlns="http://www.w3.org/2000/svg">
    <path d="M16.4029 21.7114H10.5273V23.1803H16.4029V21.7114Z" fill="#8FBA44"/>
    <path d="M28.9182 7.56077L24.7637 11.7153L25.8023 12.754L29.9569 8.5994L28.9182 7.56077Z" fill="#8FBA44"/>
    <path d="M13.4646 24.8936C7.65986 24.8936 2.9375 29.616 2.9375 35.4206C2.9375 41.2252 7.65986 45.9477 13.4646 45.9477C19.2692 45.9477 23.9916 41.2252 23.9916 35.4206C23.9916 29.616 19.2692 24.8936 13.4646 24.8936ZM13.4646 44.4788C8.46982 44.4788 4.40635 40.4153 4.40635 35.4206C4.40635 30.4259 8.46982 26.3624 13.4646 26.3624C18.4593 26.3624 22.5228 30.4259 22.5228 35.4206C22.5228 40.4153 18.4593 44.4788 13.4646 44.4788Z" fill="#8FBA44"/>
    <path d="M43.9779 11.8887C41.9926 9.90342 39.3489 8.81006 36.5342 8.81006C33.7194 8.81006 31.0758 9.90342 29.0904 11.8887C27.1051 13.874 26.0117 16.5177 26.0117 19.3324C26.0117 22.1473 27.1052 24.7908 29.0904 26.7763C31.0758 28.7615 33.7194 29.8549 36.5342 29.8549C39.3489 29.8549 41.9926 28.7615 43.9779 26.7763C48.0824 22.6717 48.0824 15.9932 43.9779 11.8887ZM42.9393 25.7375C41.2313 27.4454 38.9567 28.386 36.5342 28.386C34.1117 28.386 31.8369 27.4455 30.129 25.7375C28.4211 24.0297 27.4805 21.755 27.4805 19.3324C27.4805 16.9101 28.4211 14.6353 30.129 12.9274C31.8369 11.2195 34.1115 10.2789 36.5341 10.2789C38.9565 10.2789 41.2313 11.2193 42.9393 12.9274C46.471 16.4592 46.471 22.2058 42.9393 25.7375Z" fill="#8FBA44"/>
    <path d="M46.0563 9.81151C42.6876 6.44296 37.7812 5.11044 33.1773 6.29218L28.7878 3.39853L27.458 4.72841L25.7844 3.05487C25.0906 2.36103 24.1682 1.97899 23.187 1.97899C22.7199 1.97899 22.2562 2.06952 21.8245 2.24159C21.7883 2.20185 21.7516 2.16249 21.7133 2.12421C21.0088 1.41972 20.0475 1.06269 19.0052 1.12089C17.9938 1.17665 17.0251 1.61913 16.2775 2.36679L14.6594 3.98485L15.6979 5.02353L17.316 3.40536C17.8077 2.91376 18.4362 2.62333 19.0859 2.58739C19.7046 2.5539 20.2692 2.75751 20.6745 3.16288C21.0797 3.56806 21.2841 4.13212 21.2499 4.75146C21.2141 5.40116 20.9236 6.02978 20.4319 6.52128L18.1121 8.8412C17.8613 9.09198 17.5748 9.29013 17.2681 9.42909C17.0982 7.56064 15.5237 6.09179 13.6118 6.09179C11.5869 6.09179 9.93955 7.73905 9.93955 9.76405V12.7018C9.93955 13.3189 10.0933 13.9007 10.3634 14.4116C10.0026 14.9798 9.79268 15.6526 9.79268 16.374V18.6753H7.67588L6.61816 23.8252C2.52705 26.2452 0 30.6567 0 35.4207C0 42.8451 6.04024 48.8855 13.4648 48.8855C20.8895 48.8855 26.9297 42.8452 26.9297 35.4207C26.9297 30.6568 24.4026 26.2452 20.3115 23.8253L19.2538 18.6754H17.137V16.3741C17.137 15.7676 16.9904 15.1836 16.7146 14.662C17.0745 14.0943 17.2839 13.4223 17.2839 12.7019V10.9818C17.9751 10.7882 18.6189 10.4118 19.1507 9.88007L20.6868 8.34394L22.2647 9.92177L20.6009 11.5856L23.4945 15.9751C22.3129 20.5791 23.6453 25.4853 27.014 28.854C29.5571 31.3972 32.9385 32.7977 36.5351 32.7977C40.1316 32.7977 43.513 31.397 46.0563 28.854C48.5993 26.3106 50 22.9293 50 19.3327C50 15.736 48.5994 12.3548 46.0563 9.81151ZM13.6117 7.56073C14.7808 7.56073 15.7396 8.47607 15.8104 9.62753C15.4036 9.55458 15.039 9.36923 14.7535 9.08368L13.7149 10.1224C14.28 10.6874 15.0106 11.0279 15.8151 11.111V12.7017C15.8151 13.9165 14.8268 14.905 13.6118 14.905C13.1318 14.905 12.6877 14.7503 12.3254 14.4888C12.658 14.2869 13.0481 14.1705 13.4649 14.1705V12.7016C12.7368 12.7016 12.0581 12.9154 11.4867 13.2823C11.4361 13.0972 11.4085 12.9025 11.4085 12.7016V9.76405C11.4085 8.54921 12.3968 7.56073 13.6117 7.56073ZM11.2615 16.374C11.2615 16.1112 11.3079 15.8591 11.3928 15.6253C12.0097 16.0946 12.7786 16.374 13.6118 16.374C14.3396 16.374 15.0179 16.1603 15.5892 15.7938C15.6399 15.9809 15.6683 16.1752 15.6683 16.374V18.6753H11.2616L11.2615 16.374ZM18.0561 20.1442L19.007 24.7745L19.3008 24.9386C23.1004 27.0588 25.4608 31.0753 25.4608 35.4208C25.4608 42.0354 20.0795 47.4168 13.4648 47.4168C6.8502 47.4168 1.46885 42.0354 1.46885 35.4207C1.46885 31.0752 3.8293 27.0587 7.62891 24.9385L7.92266 24.7744L8.87363 20.1441H18.0561V20.1442ZM21.7148 7.29433C22.3141 6.58944 22.6672 5.72782 22.7165 4.83231C22.7414 4.38124 22.6884 3.9453 22.5635 3.53866C22.7652 3.47929 22.9754 3.44774 23.1869 3.44774C23.7758 3.44774 24.3293 3.67714 24.7456 4.09345L26.4192 5.76698L23.3034 8.8828L21.7148 7.29433ZM45.0175 27.815C42.7517 30.0809 39.7393 31.3286 36.5351 31.3286C33.3309 31.3286 30.3185 30.0809 28.0526 27.815C24.98 24.7424 23.8089 20.2333 24.9964 16.0473L25.0883 15.7235L22.4866 11.777L28.9795 5.28417L32.926 7.88573L33.2497 7.79384C37.4355 6.60644 41.9447 7.77734 45.0176 10.8502C47.2833 13.1159 48.5311 16.1283 48.5311 19.3325C48.5312 22.537 47.2833 25.5493 45.0175 27.815Z" fill="#8FBA44"/>
</svg>
