<svg width="50" height="50" viewBox="0 0 50 50" fill="none" xmlns="http://www.w3.org/2000/svg">
    <path d="M26.3608 31.6573C27.2283 31.5898 28.0192 31.1473 28.5325 30.4415L36.335 19.6548C36.5742 19.324 36.5383 18.8673 36.2483 18.5773C35.9583 18.2881 35.5017 18.2523 35.1708 18.4906L24.3825 26.2956C23.6792 26.8073 23.2367 27.5981 23.1692 28.4656C23.1017 29.3331 23.4158 30.1823 24.03 30.7965C24.5892 31.3565 25.3433 31.6665 26.1275 31.6665C26.205 31.6665 26.2825 31.6631 26.3608 31.6573ZM24.8308 28.5956C24.86 28.2148 25.055 27.8673 25.3617 27.644L31.9425 22.8831L27.1833 29.4623C26.9583 29.7715 26.6108 29.9656 26.23 29.9956C25.8508 30.0206 25.4783 29.889 25.2075 29.6181C24.9392 29.349 24.8008 28.9756 24.8308 28.5956Z" fill="#8FBA44"/>
    <path d="M45.0276 16.3033C45.0192 16.2858 45.0192 16.2675 45.0101 16.25C45.0001 16.2333 44.9842 16.2242 44.9734 16.2083C44.1309 14.7633 43.1342 13.4192 42.0026 12.2008L43.7926 10.4117L44.9709 11.59L48.5059 8.05417L44.9709 4.51917L41.4351 8.05417L42.6142 9.23333L40.8242 11.0225C39.6059 9.89083 38.2626 8.89333 36.8167 8.05083C36.8009 8.04 36.7917 8.02417 36.7751 8.01417C36.7576 8.00417 36.7392 8.005 36.7217 7.99583C34.1442 6.51083 31.2484 5.52167 28.1609 5.15917V4.16667H29.4109C30.5601 4.16667 31.4942 3.2325 31.4942 2.08333C31.4942 0.934167 30.5592 0 29.4101 0H21.9101C20.7609 0 19.8267 0.934167 19.8267 2.08333C19.8267 3.2325 20.7609 4.16667 21.9101 4.16667H23.1601V5.13C22.2601 5.22583 21.3617 5.3725 20.4734 5.57583C20.0251 5.67833 19.7442 6.12583 19.8476 6.57417C19.9501 7.0225 20.3976 7.30417 20.8459 7.2C21.6126 7.02417 22.3867 6.89167 23.1626 6.8025L24.0567 6.73333C24.3301 6.7125 24.5817 6.6975 24.8267 6.68583V8.33333C24.8267 8.79417 25.1992 9.16667 25.6601 9.16667C26.1209 9.16667 26.4934 8.79417 26.4934 8.33333V6.69167C29.6276 6.83583 32.5809 7.6775 35.2067 9.0625L34.3851 10.485C34.1551 10.8842 34.2917 11.3933 34.6901 11.6233C34.8209 11.6992 34.9642 11.735 35.1059 11.735C35.3942 11.735 35.6742 11.5858 35.8284 11.3183L36.6476 9.89917C39.2551 11.5533 41.4701 13.7683 43.1242 16.3758L41.7051 17.195C41.3076 17.425 41.1709 17.9342 41.4017 18.3333C41.5567 18.6008 41.8359 18.75 42.1242 18.75C42.2659 18.75 42.4092 18.7142 42.5401 18.6383L43.9626 17.8167C45.3667 20.48 46.2109 23.4817 46.3367 26.6658H44.6909C44.2301 26.6658 43.8576 27.0383 43.8576 27.4992C43.8576 27.96 44.2301 28.3325 44.6909 28.3325H46.3367C46.2109 31.5167 45.3667 34.5183 43.9626 37.1817L42.5401 36.36C42.1417 36.13 41.6317 36.265 41.4017 36.665C41.1717 37.0642 41.3084 37.5733 41.7067 37.8033L43.1259 38.6225C41.4717 41.23 39.2567 43.445 36.6492 45.0992L35.8301 43.68C35.5992 43.28 35.0884 43.1442 34.6917 43.375C34.2926 43.605 34.1559 44.115 34.3867 44.5133L35.2084 45.9358C32.5826 47.3208 29.6292 48.1625 26.4951 48.3067V46.6667C26.4951 46.2058 26.1226 45.8333 25.6617 45.8333C25.2009 45.8333 24.8284 46.2058 24.8284 46.6667V48.3133C23.4976 48.2675 22.1626 48.1008 20.8484 47.7992C20.4001 47.6917 19.9526 47.9767 19.8501 48.425C19.7467 48.8733 20.0276 49.3208 20.4759 49.4233C22.1392 49.8067 23.8384 50 25.5242 50C25.5651 50 25.6042 49.9975 25.6451 49.9967C25.6509 49.9967 25.6551 50 25.6601 50C25.6667 50 25.6726 49.9958 25.6792 49.9958C29.6851 49.9683 33.4434 48.8867 36.6951 47.0183C36.7209 47.0067 36.7484 47.0008 36.7734 46.9858C36.7901 46.9758 36.7992 46.96 36.8151 46.9492C40.1809 44.9875 42.9934 42.1783 44.9592 38.815C44.9751 38.7925 44.9951 38.775 45.0092 38.75C45.0192 38.7325 45.0184 38.7142 45.0267 38.6967C46.9301 35.3967 48.0242 31.575 48.0242 27.5C48.0242 23.425 46.9301 19.6033 45.0276 16.3033ZM44.9701 6.87583L46.1484 8.05417L44.9701 9.23333L43.7909 8.05417L44.9701 6.87583ZM24.8267 5.0175V2.5H21.9101C21.6809 2.5 21.4934 2.3125 21.4934 2.08333C21.4934 1.85417 21.6809 1.66667 21.9101 1.66667H29.4101C29.6392 1.66667 29.8267 1.85417 29.8267 2.08333C29.8267 2.3125 29.6392 2.5 29.4101 2.5H26.4934V5.0175C26.2034 5.00583 25.9267 5 25.6601 5C25.6367 5 25.6101 5.00167 25.5867 5.00167C25.5659 5.00167 25.5451 5 25.5242 5C25.3876 5 25.2509 5.00917 25.1142 5.01167C25.0176 5.01417 24.9267 5.01333 24.8267 5.0175Z" fill="#8FBA44"/>
    <path d="M18.1602 11.6665H13.9935C13.5327 11.6665 13.1602 12.039 13.1602 12.4998C13.1602 12.9607 13.5327 13.3332 13.9935 13.3332H18.1602C18.621 13.3332 18.9935 12.9607 18.9935 12.4998C18.9935 12.039 18.621 11.6665 18.1602 11.6665Z" fill="#8FBA44"/>
    <path d="M18.1608 17.5H9.82747C9.36664 17.5 8.99414 17.8725 8.99414 18.3333C8.99414 18.7942 9.36664 19.1667 9.82747 19.1667H18.1608C18.6216 19.1667 18.9941 18.7942 18.9941 18.3333C18.9941 17.8725 18.6216 17.5 18.1608 17.5Z" fill="#8FBA44"/>
    <path d="M18.1615 23.3335H5.66146C5.20063 23.3335 4.82812 23.706 4.82812 24.1668C4.82812 24.6277 5.20063 25.0002 5.66146 25.0002H18.1615C18.6223 25.0002 18.9948 24.6277 18.9948 24.1668C18.9948 23.706 18.6223 23.3335 18.1615 23.3335Z" fill="#8FBA44"/>
    <path d="M18.1608 29.1665H2.32747C1.86664 29.1665 1.49414 29.539 1.49414 29.9998C1.49414 30.4607 1.86664 30.8332 2.32747 30.8332H18.1608C18.6216 30.8332 18.9941 30.4607 18.9941 29.9998C18.9941 29.539 18.6216 29.1665 18.1608 29.1665Z" fill="#8FBA44"/>
    <path d="M18.1608 35H7.32747C6.86664 35 6.49414 35.3725 6.49414 35.8333C6.49414 36.2942 6.86664 36.6667 7.32747 36.6667H18.1608C18.6216 36.6667 18.9941 36.2942 18.9941 35.8333C18.9941 35.3725 18.6216 35 18.1608 35Z" fill="#8FBA44"/>
    <path d="M18.1608 40.833H12.3275C11.8666 40.833 11.4941 41.2055 11.4941 41.6663C11.4941 42.1272 11.8666 42.4997 12.3275 42.4997H18.1608C18.6216 42.4997 18.9941 42.1272 18.9941 41.6663C18.9941 41.2055 18.6216 40.833 18.1608 40.833Z" fill="#8FBA44"/>
</svg>
