<svg width="14" height="9" viewBox="0 0 14 9" fill="none" xmlns="http://www.w3.org/2000/svg">
    <path d="M0.441942 2.09868C0.197864 1.8546 0.197864 1.45887 0.441942 1.2148L1.32583 0.330913C1.5699 0.0868355 1.96563 0.0868354 2.20971 0.330913L8.39689 6.5181C8.64097 6.76217 8.64097 7.1579 8.39689 7.40198L7.51301 8.28586C7.26893 8.52994 6.8732 8.52994 6.62913 8.28586L0.441942 2.09868Z" fill="#2A2D28"/>
    <path d="M11.9324 0.330913C12.1765 0.0868356 12.5722 0.0868353 12.8163 0.330913L13.7002 1.2148C13.9443 1.45887 13.9443 1.8546 13.7002 2.09868L7.51301 8.28586C7.26893 8.52994 6.8732 8.52994 6.62913 8.28586L5.74524 7.40198C5.50116 7.1579 5.50116 6.76217 5.74524 6.5181L11.9324 0.330913Z" fill="#2A2D28"/>
</svg>
