<svg width="12" height="12" viewBox="0 0 12 12" fill="none" xmlns="http://www.w3.org/2000/svg">
    <path d="M0.353553 6.01041C0.158291 5.81515 0.158291 5.49857 0.353553 5.30331L1.06066 4.5962C1.25592 4.40094 1.5725 4.40094 1.76777 4.5962L6.71751 9.54595C6.91278 9.74121 6.91278 10.0578 6.71752 10.2531L6.01041 10.9602C5.81515 11.1554 5.49856 11.1554 5.3033 10.9602L0.353553 6.01041Z"
          fill="#8FBA44"/>
    <path d="M9.54594 4.5962C9.7412 4.40094 10.0578 4.40094 10.253 4.5962L10.9602 5.30331C11.1554 5.49857 11.1554 5.81515 10.9602 6.01041L6.01041 10.9602C5.81515 11.1554 5.49856 11.1554 5.3033 10.9602L4.59619 10.2531C4.40093 10.0578 4.40093 9.74121 4.59619 9.54595L9.54594 4.5962Z"
          fill="#8FBA44"/>
</svg>
