<svg width="120" height="120" viewBox="0 0 120 120" fill="none" xmlns="http://www.w3.org/2000/svg">
    <path d="M60 0C44.8888 -1.80199e-07 30.3341 5.7019 19.2441 15.9664C8.15416 26.2308 1.34565 40.3019 0.179063 55.368C-0.987521 70.4341 3.57374 85.3855 12.9514 97.2348C22.3291 109.084 35.8326 116.959 50.7636 119.285C65.6947 121.611 80.9536 118.218 93.4915 109.783C106.029 101.348 114.923 88.4925 118.395 73.7856C121.867 59.0787 119.662 43.6033 112.22 30.4516C104.778 17.3 92.6475 7.44064 78.2525 2.84368L74.613 14.2407C86.1376 17.921 95.8491 25.8144 101.807 36.3436C107.765 46.8728 109.531 59.2624 106.751 71.0368C103.971 82.8111 96.8512 93.103 86.8133 99.856C76.7755 106.609 64.5592 109.326 52.6054 107.463C40.6516 105.601 29.8407 99.2968 22.3329 89.8102C14.8251 80.3236 11.1734 68.3535 12.1074 56.2916C13.0413 44.2297 18.4922 32.9644 27.3709 24.7467C36.2495 16.5289 47.902 11.964 60 11.964V0Z" fill="#8FBA44"/>
</svg>
