<svg xmlns="http://www.w3.org/2000/svg" display="none">
    <symbol id="telegram" viewBox="0 0 18 16">
        <path d="M0.301526 7.27459L4.25489 8.74872L5.79601 13.7071C5.86302 14.0422 6.26506 14.1092 6.53308 13.9082L8.74427 12.099C8.94529 11.898 9.28032 11.898 9.54835 12.099L13.5017 14.9803C13.7697 15.1813 14.1718 15.0473 14.2388 14.7122L17.187 0.641007C17.254 0.305978 16.919 -0.0290485 16.584 0.104963L0.301526 6.40351C-0.100509 6.53753 -0.100509 7.14058 0.301526 7.27459ZM5.59501 8.01165L13.3677 3.25424C13.5017 3.18723 13.6357 3.38825 13.5017 3.45526L7.13613 9.41878C6.93511 9.61979 6.73409 9.88782 6.73409 10.2228L6.53308 11.831C6.53308 12.032 6.19805 12.099 6.13104 11.831L5.32697 8.88273C5.12595 8.5477 5.25998 8.14566 5.59501 8.01165Z"/>
    </symbol>

    <symbol id="vk" viewBox="0 0 19 11">
        <path d="M18.8235 9.86986C18.8235 9.79452 18.7479 9.79452 18.7479 9.71918C18.4455 9.11644 17.7652 8.36302 16.858 7.53425C16.4044 7.15754 16.1776 6.85616 16.0264 6.70548C15.7997 6.40411 15.7997 6.17809 15.8753 5.87672C15.9509 5.65069 16.2532 5.27397 16.7824 4.59589C17.0848 4.21917 17.236 3.99315 17.4628 3.76713C18.5967 2.26028 19.1259 1.28082 18.9747 0.828761L18.8991 0.753425C18.8235 0.678083 18.7479 0.602742 18.5967 0.602742C18.4455 0.5274 18.2187 0.5274 17.992 0.602742H15.1193C15.0437 0.602742 15.0437 0.602742 14.8925 0.602742C14.8169 0.602742 14.7413 0.602742 14.7413 0.602742H14.6657H14.5901L14.5145 0.678078C14.4389 0.753421 14.4389 0.753418 14.4389 0.828761C14.1365 1.65753 13.7585 2.33561 13.3806 3.08904C13.1538 3.46575 12.927 3.84247 12.7002 4.14384C12.4734 4.44521 12.3222 4.67123 12.171 4.82192C12.0198 4.9726 11.8686 5.04794 11.793 5.19863C11.7174 5.27397 11.5663 5.34932 11.5663 5.27398C11.4907 5.27398 11.4151 5.27397 11.4151 5.19863C11.3395 5.12329 11.2639 5.04794 11.1883 4.9726C11.1127 4.89726 11.1127 4.74657 11.0371 4.59589C11.0371 4.4452 11.0371 4.29452 11.0371 4.21917C11.0371 4.14383 11.0371 3.91781 11.0371 3.76713C11.0371 3.5411 11.0371 3.39041 11.0371 3.31507C11.0371 3.08904 11.0371 2.78768 11.0371 2.48631C11.0371 2.18494 11.0371 1.9589 11.0371 1.80822C11.0371 1.65753 11.0371 1.43151 11.0371 1.28082C11.0371 1.05479 11.0371 0.904103 11.0371 0.828761C11.0371 0.753418 10.9615 0.602738 10.9615 0.527395C10.8859 0.452053 10.8103 0.376708 10.7347 0.301365C10.6591 0.226023 10.5079 0.226025 10.4323 0.150683C10.0543 0.0753402 9.60076 0 9.07158 0C7.86204 0 7.03047 0.0753448 6.72809 0.22603C6.5769 0.301372 6.4257 0.37671 6.35011 0.527395C6.19891 0.67808 6.19891 0.753425 6.27451 0.753425C6.65249 0.828768 6.95488 0.979446 7.10607 1.20547L7.18167 1.35617C7.25727 1.43151 7.25725 1.58219 7.33285 1.80822C7.40845 2.03424 7.40845 2.26027 7.40845 2.56164C7.40845 3.0137 7.40845 3.46576 7.40845 3.76713C7.40845 4.14384 7.33285 4.36986 7.33285 4.59589C7.33285 4.82191 7.25727 4.9726 7.18167 5.04795C7.10608 5.19863 7.10607 5.27398 7.03047 5.27398C7.03047 5.27398 7.03047 5.34931 6.95487 5.34931C6.87927 5.34931 6.80368 5.42466 6.65249 5.42466C6.57689 5.42466 6.4257 5.34932 6.35011 5.27398C6.19891 5.19863 6.04772 5.04795 5.97212 4.89726C5.82093 4.74658 5.66973 4.52054 5.51854 4.21917C5.36735 3.9178 5.14055 3.61644 4.98936 3.16438L4.83818 2.86302C4.76258 2.71233 4.61139 2.41096 4.4602 2.03425C4.309 1.65753 4.15781 1.35617 4.00661 0.979455C3.93102 0.82877 3.85543 0.753421 3.77983 0.678078H3.70423C3.70423 0.678078 3.62863 0.602742 3.55303 0.602742C3.47743 0.602742 3.40185 0.527395 3.32625 0.527395H0.604774C0.302388 0.527395 0.151197 0.602736 0.075601 0.678078L0 0.753425C0 0.753425 0 0.828765 0 0.904108C0 0.97945 4.61291e-06 1.05479 0.075601 1.20547C0.453583 2.10958 0.907159 3.0137 1.36074 3.91781C1.81432 4.74658 2.2679 5.5 2.57029 6.0274C2.94827 6.5548 3.25065 7.0822 3.62863 7.53425C4.00661 7.98631 4.2334 8.28767 4.30899 8.43836C4.46019 8.58904 4.53578 8.66438 4.61138 8.73972L4.83818 8.96575C4.98937 9.11644 5.21616 9.34247 5.51854 9.5685C5.82093 9.79452 6.1989 10.0205 6.57689 10.2466C6.95487 10.4726 7.40846 10.6233 7.86204 10.774C8.39121 10.9247 8.84478 11 9.29836 10.9247H10.4323C10.6591 10.9247 10.8103 10.8493 10.9615 10.6986L11.0371 10.6233C11.0371 10.5479 11.1127 10.5479 11.1127 10.4726C11.1127 10.3973 11.1127 10.3219 11.1127 10.1712C11.1127 9.86987 11.1127 9.64384 11.1883 9.41781C11.2639 9.19179 11.2639 9.0411 11.3395 8.89042C11.4151 8.73973 11.4907 8.66438 11.5663 8.58904C11.6419 8.5137 11.7175 8.43836 11.7175 8.43836H11.793C11.9442 8.36302 12.171 8.43836 12.3222 8.58904C12.549 8.73973 12.7758 8.96576 12.927 9.19178C13.0782 9.41781 13.305 9.64384 13.6074 9.94521C13.9098 10.2466 14.1365 10.4726 14.2877 10.548L14.5145 10.6986C14.6657 10.774 14.8169 10.8493 15.0437 10.9247C15.2705 11 15.4217 11 15.5729 11L18.1432 10.9247C18.3699 10.9247 18.5967 10.8493 18.7479 10.774C18.8991 10.6986 18.9747 10.6233 18.9747 10.4726C18.9747 10.3973 18.9747 10.2466 18.9747 10.1712C18.8235 10.0206 18.8235 9.9452 18.8235 9.86986Z"/>
    </symbol>

    <symbol id="whatsapp" viewBox="0 0 15 15">
        <path d="M12.8049 2.1875C11.3937 0.781249 9.51219 0 7.52613 0C3.39721 0 0.052264 3.33333 0.052264 7.44792C0.052264 8.75 0.418118 10.0521 1.0453 11.1458L0 15L3.97213 13.9583C5.06969 14.5313 6.27178 14.8438 7.52613 14.8438C11.6551 14.8438 15 11.5104 15 7.39583C14.9477 5.46875 14.216 3.59375 12.8049 2.1875ZM11.1324 10.1042C10.9756 10.5208 10.2439 10.9375 9.87805 10.9896C9.56446 11.0417 9.14634 11.0417 8.72822 10.9375C8.4669 10.8333 8.10105 10.7292 7.68293 10.5208C5.80139 9.73958 4.5993 7.86458 4.49477 7.70833C4.39025 7.60417 3.7108 6.71875 3.7108 5.78125C3.7108 4.84375 4.18118 4.42708 4.33798 4.21875C4.49477 4.01042 4.70383 4.01042 4.86063 4.01042C4.96516 4.01042 5.12195 4.01042 5.22648 4.01042C5.33101 4.01042 5.4878 3.95833 5.6446 4.32292C5.80139 4.6875 6.16725 5.625 6.21951 5.67708C6.27178 5.78125 6.27178 5.88542 6.21951 5.98958C6.16725 6.09375 6.11498 6.19792 6.01045 6.30208C5.90592 6.40625 5.80139 6.5625 5.74913 6.61458C5.6446 6.71875 5.54007 6.82292 5.6446 6.97917C5.74913 7.1875 6.11498 7.76042 6.6899 8.28125C7.4216 8.90625 7.99652 9.11458 8.20558 9.21875C8.41463 9.32292 8.51916 9.27083 8.62369 9.16667C8.72822 9.0625 9.09408 8.64583 9.19861 8.4375C9.30314 8.22917 9.45993 8.28125 9.61672 8.33333C9.77352 8.38542 10.7143 8.85417 10.8711 8.95833C11.0801 9.0625 11.1847 9.11458 11.2369 9.16667C11.2892 9.32292 11.2892 9.6875 11.1324 10.1042Z"/>
    </symbol>

    <symbol id="fb" viewBox="0 0 13 13">
        <path d="M13 2.15544C13 1.01036 11.9896 0 10.8446 0H2.15544C1.01036 0 0 1.01036 0 2.15544V10.8446C0 11.9896 1.01036 13 2.15544 13H6.53368V8.0829H4.9171V5.92746H6.53368V5.05181C6.53368 3.56995 7.6114 2.29015 8.95855 2.29015H10.7098V4.44559H8.95855C8.75648 4.44559 8.5544 4.64767 8.5544 5.05181V5.92746H10.7098V8.0829H8.5544V13H10.8446C11.9896 13 13 11.9896 13 10.8446V2.15544Z"/>
    </symbol>

    <symbol id="instagram" viewBox="0 0 15 15">
        <path d="M12.8654 0H2.13461C0.923075 0 0 0.923077 0 2.13462V12.8654C0 14.0769 0.923075 15 2.13461 15H12.8654C14.0769 15 15 14.0769 15 12.8654V2.13462C15 0.923077 14.0769 0 12.8654 0ZM7.5 12C9.98077 12 12 10.0385 12 7.67308C12 7.26923 11.9423 6.80769 11.8269 6.46154H13.0962V12.5769C13.0962 12.8654 12.8654 13.1538 12.5192 13.1538H2.48077C2.19231 13.1538 1.90385 12.9231 1.90385 12.5769V6.40385H3.23077C3.11539 6.80769 3.05769 7.21154 3.05769 7.61539C3 10.0385 5.01923 12 7.5 12ZM7.5 10.2692C5.88462 10.2692 4.61538 9 4.61538 7.44231C4.61538 5.88462 5.88462 4.61538 7.5 4.61538C9.11538 4.61538 10.3846 5.88462 10.3846 7.44231C10.3846 9.05769 9.11538 10.2692 7.5 10.2692ZM13.0385 4.09615C13.0385 4.44231 12.75 4.73077 12.4038 4.73077H10.7885C10.4423 4.73077 10.1538 4.44231 10.1538 4.09615V2.53846C10.1538 2.19231 10.4423 1.90385 10.7885 1.90385H12.4038C12.75 1.90385 13.0385 2.19231 13.0385 2.53846V4.09615Z"/>
    </symbol>

    <symbol id="instagram2" viewBox="0 0 37 38">
        <path d="M36.7671 11.5329C36.7465 9.98661 36.457 8.45567 35.9116 7.00859C35.4386 5.78798 34.7163 4.67945 33.7907 3.75382C32.865 2.8282 31.7565 2.10583 30.5359 1.63288C29.1074 1.09665 27.5983 0.806699 26.0728 0.775378C24.1087 0.687586 23.486 0.663086 18.5003 0.663086C13.5145 0.663086 12.8755 0.663086 10.9257 0.775378C9.40088 0.80693 7.89248 1.09687 6.46464 1.63288C5.24384 2.1055 4.13514 2.82775 3.20947 3.75342C2.28381 4.67909 1.56156 5.78779 1.08893 7.00859C0.551629 8.43598 0.262309 9.94473 0.233474 11.4696C0.145682 13.4358 0.119141 14.0585 0.119141 19.0442C0.119141 24.03 0.119141 24.667 0.233474 26.6188C0.264099 28.146 0.551974 29.6527 1.08893 31.0839C1.56235 32.3043 2.28514 33.4126 3.21111 34.3379C4.13709 35.2631 5.2459 35.9851 6.46668 36.4576C7.89061 37.0154 9.39928 37.3261 10.9277 37.3763C12.8939 37.4641 13.5166 37.4907 18.5023 37.4907C23.4881 37.4907 24.1271 37.4907 26.0769 37.3763C27.6023 37.3463 29.1115 37.057 30.54 36.5209C31.7603 36.0474 32.8685 35.3248 33.7941 34.3993C34.7196 33.4737 35.4422 32.3655 35.9157 31.1452C36.4526 29.716 36.7405 28.2093 36.7711 26.68C36.8589 24.716 36.8855 24.0933 36.8855 19.1055C36.8814 14.1197 36.8814 13.4868 36.7671 11.5329ZM18.488 28.4726C13.2736 28.4726 9.04939 24.2484 9.04939 19.034C9.04939 13.8196 13.2736 9.59538 18.488 9.59538C20.9913 9.59538 23.392 10.5898 25.1621 12.3599C26.9322 14.13 27.9266 16.5307 27.9266 19.034C27.9266 21.5373 26.9322 23.938 25.1621 25.7081C23.392 27.4782 20.9913 28.4726 18.488 28.4726ZM28.3023 11.4472C27.0834 11.4472 26.1014 10.4631 26.1014 9.24625C26.1014 8.95736 26.1583 8.67129 26.2688 8.40439C26.3794 8.13749 26.5414 7.89497 26.7457 7.69069C26.95 7.48641 27.1925 7.32437 27.4594 7.21381C27.7263 7.10326 28.0124 7.04636 28.3013 7.04636C28.5902 7.04636 28.8762 7.10326 29.1432 7.21381C29.4101 7.32437 29.6526 7.48641 29.8569 7.69069C30.0611 7.89497 30.2232 8.13749 30.3337 8.40439C30.4443 8.67129 30.5012 8.95736 30.5012 9.24625C30.5012 10.4631 29.5171 11.4472 28.3023 11.4472Z"/>
        <path d="M18.4881 25.1656C21.8742 25.1656 24.6192 22.4206 24.6192 19.0344C24.6192 15.6483 21.8742 12.9033 18.4881 12.9033C15.1019 12.9033 12.3569 15.6483 12.3569 19.0344C12.3569 22.4206 15.1019 25.1656 18.4881 25.1656Z"/>
    </symbol>


    <symbol id="fb2" viewBox="0 0 25 48">
        <path d="M23.3618 26.761L24.6587 18.3366H16.5524V12.8697C16.5524 10.5654 17.6844 8.31783 21.3152 8.31783H25V1.14595C25 1.14595 21.6565 0.577148 18.459 0.577148C11.7838 0.577148 7.42064 4.6126 7.42064 11.9169V18.3381H0V26.7625H7.42064V47.1289H16.5524V26.7625L23.3618 26.761Z"/>
    </symbol>


    <symbol id="phone" viewBox="0 0 28 27">
        <path d="M23.0481 19.5614C21.1806 19.3906 19.3597 18.9159 17.6389 18.1496C16.7932 17.7681 15.8042 18.1133 15.3882 18.9349L14.2145 21.265C10.6556 19.2922 7.70412 16.339 5.73477 12.7835L8.06312 11.6115C8.88469 11.199 9.23162 10.21 8.8519 9.36085C8.08384 7.64177 7.60746 5.82258 7.43832 3.95161C7.35547 3.05064 6.62192 2.37061 5.72959 2.37061H1.32833C0.851953 2.37061 0.465332 2.75723 0.465332 3.2336C0.465332 6.74771 1.23167 10.1358 2.74191 13.3082C5.03574 18.0754 8.92439 21.964 13.695 24.2596C16.8657 25.7698 20.2538 26.5344 23.7661 26.5344C24.2425 26.5344 24.6291 26.1478 24.6291 25.6714V21.2702C24.6291 20.3778 23.9491 19.6425 23.0481 19.5614Z"/>
        <rect x="16.2734" y="2.09668" width="2" height="10.3559" rx="0.690394"/>
        <rect x="26.6289" y="10.4526" width="2" height="10.3559" rx="0.690394" transform="rotate(90 26.6289 10.4526)"/>
        <rect x="26.5244" y="0.791992" width="2" height="12.8291" rx="0.690394"
              transform="rotate(45 26.5244 0.791992)"/>
    </symbol>

    <symbol id="mail" viewBox="0 0 96 63">
        <path d="M43.527 62.6578H39.554C39.1956 62.6578 38.8519 62.5154 38.5984 62.262C38.345 62.0086 38.2026 61.6648 38.2026 61.3064C38.2026 60.948 38.345 60.6043 38.5984 60.3509C38.8519 60.0975 39.1956 59.9551 39.554 59.9551H43.527C43.8854 59.9551 44.2291 60.0975 44.4825 60.3509C44.7359 60.6043 44.8783 60.948 44.8783 61.3064C44.8783 61.6648 44.7359 62.0086 44.4825 62.262C44.2291 62.5154 43.8854 62.6578 43.527 62.6578Z"/>
        <path d="M93.9459 62.6583H66.4189C66.0605 62.6583 65.7167 62.5159 65.4633 62.2625C65.2099 62.009 65.0675 61.6653 65.0675 61.3069C65.0675 60.9485 65.2099 60.6048 65.4633 60.3514C65.7167 60.0979 66.0605 59.9556 66.4189 59.9556H92.5945V3.1988H3.40534V59.9556H30.0945C30.4529 59.9556 30.7967 60.0979 31.0501 60.3514C31.3035 60.6048 31.4459 60.9485 31.4459 61.3069C31.4459 61.6653 31.3035 62.009 31.0501 62.2625C30.7967 62.5159 30.4529 62.6583 30.0945 62.6583H2.0675C1.70763 62.659 1.3621 62.5173 1.10637 62.2641C0.850636 62.0109 0.705492 61.6668 0.702637 61.3069V1.84745C0.702637 1.48904 0.845011 1.14532 1.09844 0.891896C1.35187 0.638468 1.69559 0.496094 2.05399 0.496094H93.9459C94.3043 0.496094 94.648 0.638468 94.9014 0.891896C95.1549 1.14532 95.2972 1.48904 95.2972 1.84745V61.3069C95.2972 61.6653 95.1549 62.009 94.9014 62.2625C94.648 62.5159 94.3043 62.6583 93.9459 62.6583Z"/>
        <path d="M56.9461 62.6578H52.9866C52.6282 62.6578 52.2845 62.5154 52.0311 62.262C51.7776 62.0086 51.6353 61.6648 51.6353 61.3064C51.6353 60.948 51.7776 60.6043 52.0311 60.3509C52.2845 60.0975 52.6282 59.9551 52.9866 59.9551H56.9461C57.3045 59.9551 57.6482 60.0975 57.9016 60.3509C58.1551 60.6043 58.2974 60.948 58.2974 61.3064C58.2974 61.6648 58.1551 62.0086 57.9016 62.262C57.6482 62.5154 57.3045 62.6578 56.9461 62.6578Z"/>
        <path d="M47.9999 41.3074C44.2202 41.3147 40.5806 39.8775 37.8256 37.2898L1.12827 2.83303C0.998905 2.71147 0.894745 2.56562 0.821743 2.4038C0.74874 2.24199 0.708324 2.06738 0.702803 1.88994C0.691652 1.53159 0.823311 1.18349 1.06882 0.92222C1.31432 0.660946 1.65356 0.507899 2.01191 0.496748C2.37025 0.485598 2.71835 0.617257 2.97963 0.862761L39.6756 35.3155C41.933 37.4272 44.9087 38.6021 47.9999 38.6021C51.0911 38.6021 54.0668 37.4272 56.3242 35.3155L93.0202 0.862761C93.1495 0.7412 93.3016 0.64631 93.4676 0.58351C93.6337 0.520709 93.8105 0.491227 93.9879 0.496748C94.1653 0.50227 94.3399 0.542686 94.5018 0.615688C94.6636 0.688691 94.8094 0.79285 94.931 0.92222C95.0525 1.05159 95.1474 1.20364 95.2102 1.36968C95.273 1.53572 95.3025 1.71251 95.297 1.88994C95.2915 2.06738 95.2511 2.24199 95.1781 2.4038C95.1051 2.56562 95.0009 2.71147 94.8715 2.83303L58.1742 37.2857C55.4196 39.8746 51.7801 41.3132 47.9999 41.3074Z"/>
        <path d="M93.9298 62.6582C93.6046 62.658 93.2903 62.5404 93.0447 62.3271L60.1339 33.7866C59.9936 33.6723 59.8777 33.531 59.7931 33.371C59.7085 33.211 59.6568 33.0357 59.6412 32.8554C59.6257 32.6751 59.6465 32.4935 59.7024 32.3214C59.7583 32.1493 59.8482 31.9902 59.9668 31.8535C60.0854 31.7168 60.2303 31.6053 60.3927 31.5257C60.5552 31.446 60.7321 31.3998 60.9128 31.3898C61.0935 31.3797 61.2743 31.4061 61.4446 31.4673C61.6149 31.5285 61.7712 31.6233 61.9042 31.7461L94.8163 60.2866C95.0242 60.4672 95.172 60.707 95.2399 60.9739C95.3078 61.2408 95.2924 61.5221 95.196 61.78C95.0996 62.038 94.9267 62.2603 94.7004 62.4173C94.4741 62.5742 94.2052 62.6583 93.9298 62.6582Z"/>
        <path d="M2.07047 62.6582C1.79508 62.6583 1.52623 62.5742 1.29994 62.4173C1.07365 62.2603 0.900712 62.038 0.804289 61.78C0.707865 61.5221 0.692558 61.2408 0.760418 60.9739C0.828277 60.707 0.976064 60.4672 1.18399 60.2866L34.0961 31.7461C34.2291 31.6233 34.3854 31.5285 34.5557 31.4673C34.726 31.4061 34.9069 31.3797 35.0876 31.3898C35.2682 31.3998 35.4451 31.446 35.6076 31.5257C35.7701 31.6053 35.9149 31.7168 36.0335 31.8535C36.1521 31.9902 36.242 32.1493 36.2979 32.3214C36.3539 32.4935 36.3747 32.6751 36.3591 32.8554C36.3435 33.0357 36.2919 33.211 36.2072 33.371C36.1226 33.531 36.0067 33.6723 35.8664 33.7866L2.95561 62.3271C2.71003 62.5404 2.39575 62.658 2.07047 62.6582Z"/>
    </symbol>

    <symbol id="mail2" viewBox="0 0 32 16">
        <path fill-rule="evenodd" clip-rule="evenodd"
              d="M10.8134 0.0448983C10.4895 0.111352 10.24 0.242007 10.0617 0.438473C9.86365 0.656747 9.66919 1.13273 9.67156 1.39346C9.67363 1.61553 9.74358 1.67362 14.8252 5.67145C17.844 8.0464 20.0897 9.76944 20.2495 9.83338C20.6569 9.99627 21.3257 9.98269 21.6976 9.80385C21.8623 9.72473 24.2475 7.85065 26.9981 5.63928L31.9992 1.61862L32 1.3613C32.0015 0.856429 31.6636 0.360246 31.1588 0.12634C30.9213 0.0162706 30.4019 0.0098383 20.9915 0.000832012C15.5372 -0.00437877 10.957 0.0154349 10.8134 0.0448983ZM1.12622 2.25401C0.563362 2.51436 0.52532 3.28156 1.06228 3.54358C1.35591 3.68678 5.42376 3.69553 5.75412 3.55362C6.24853 3.3412 6.29102 2.60571 5.8272 2.28881C5.63374 2.15668 1.4044 2.12535 1.12622 2.25401ZM9.66675 8.50733C9.66675 11.7609 9.68846 13.555 9.72769 13.5412C9.87078 13.4909 15.4904 7.99919 15.4435 7.95557C15.2894 7.81237 9.72931 3.45204 9.70078 3.45204C9.68208 3.45204 9.66675 5.72696 9.66675 8.50733ZM29.1879 5.68843C27.6566 6.91972 26.4037 7.95673 26.4037 7.99288C26.4037 8.0291 27.6566 9.30928 29.1879 10.8378L31.9722 13.6168L31.9885 11.0755C31.9976 9.67776 31.9976 7.39017 31.9885 5.99201L31.9722 3.44979L29.1879 5.68843ZM3.55936 6.57729C3.0353 6.8431 3.08748 7.63025 3.64502 7.86975C3.9461 7.99906 5.62354 7.96946 5.8272 7.83122C6.29102 7.51632 6.24847 6.77935 5.75412 6.56699C5.44441 6.43396 3.82697 6.44155 3.55936 6.57729ZM13.2387 12.15L9.89881 15.3798L10.1611 15.6191C10.3375 15.7801 10.5259 15.881 10.7364 15.9275C11.1748 16.0242 30.4955 16.0242 30.9338 15.9275C31.1456 15.8808 31.3293 15.7819 31.5015 15.6219L31.7562 15.3854L28.5262 12.1688C26.7496 10.3997 25.2715 8.94292 25.2415 8.93147C25.2115 8.91995 24.6724 9.32369 24.0434 9.82856C23.4145 10.3334 22.7732 10.8261 22.6183 10.9234C21.7687 11.4572 20.6081 11.5355 19.6463 11.1242C19.3033 10.9774 19.0055 10.7652 17.7526 9.77445C17.1584 9.30458 16.6511 8.92014 16.6254 8.92014C16.5996 8.92014 15.0756 10.3736 13.2387 12.15ZM0.204347 10.6518C0.0235255 10.8179 0 10.8778 0 11.1717C0 11.4656 0.0235255 11.5255 0.204347 11.6916L0.408694 11.8794H3.07309H5.73748L5.95021 11.6606C6.12459 11.4813 6.16294 11.3932 6.16294 11.1717C6.16294 10.9502 6.12459 10.8621 5.95021 10.6828L5.73748 10.4641H3.07309H0.408694L0.204347 10.6518Z"/>
    </symbol>


    <symbol id="marker" viewBox="0 0 31 48">
        <path d="M15.6667 0.577148C7.02824 0.577148 0 7.60539 0 16.2438C0 18.8371 0.648361 21.4083 1.88092 23.6889L14.81 47.0723C14.9821 47.384 15.3101 47.5771 15.6667 47.5771C16.0233 47.5771 16.3513 47.384 16.5234 47.0723L29.4572 23.6812C30.685 21.4083 31.3334 18.837 31.3334 16.2438C31.3334 7.60539 24.3051 0.577148 15.6667 0.577148ZM15.6667 24.0771C11.3475 24.0771 7.8334 20.5631 7.8334 16.2438C7.8334 11.9246 11.3475 8.41054 15.6667 8.41054C19.9859 8.41054 23.5 11.9246 23.5 16.2438C23.5 20.5631 19.9859 24.0771 15.6667 24.0771Z"/>
    </symbol>


    <symbol id="arrow-right" viewBox="0 0 21 15">
        <path d="M13.3868 2.05632C13.1915 1.86106 13.1915 1.54448 13.3868 1.34921L13.8473 0.888634C14.0426 0.693372 14.3592 0.693372 14.5544 0.888634L20.8535 7.18765C21.0487 7.38291 21.0487 7.69949 20.8535 7.89476L20.3929 8.35534C20.1976 8.5506 19.881 8.5506 19.6858 8.35534L13.3868 2.05632Z"/>
        <path d="M14.5494 14.1887C14.3541 14.384 14.0375 14.384 13.8423 14.1887L13.3817 13.7281C13.1864 13.5329 13.1864 13.2163 13.3817 13.021L19.6807 6.72201C19.876 6.52675 20.1926 6.52674 20.3878 6.72201L20.8484 7.18259C21.0437 7.37785 21.0437 7.69443 20.8484 7.88969L14.5494 14.1887Z"/>
        <path d="M0.937012 7.35798C0.937012 7.08184 1.16087 6.85798 1.43701 6.85798H18.8295C19.1056 6.85798 19.3295 7.08184 19.3295 7.35798V8.20888C19.3295 8.48503 19.1056 8.70888 18.8295 8.70888H1.43701C1.16087 8.70888 0.937012 8.48503 0.937012 8.20888V7.35798Z"/>
    </symbol>

    <symbol id="search" viewBox="0 0 22 22">
        <path d="M20.7937 19.6996L15.0085 13.8897C16.1057 12.5293 16.7663 10.7997 16.7663 8.9167C16.7663 4.55145 13.2299 1 8.88311 1C4.53636 1 1 4.55145 1 8.9167C1 13.2819 4.5364 16.8334 8.88315 16.8334C10.7582 16.8334 12.4804 16.17 13.8351 15.0681L19.6203 20.878C19.7824 21.0407 20.045 21.0407 20.2071 20.878L20.7937 20.2888C20.9557 20.1261 20.9557 19.8623 20.7937 19.6996ZM8.88315 15.1667C5.4513 15.1667 2.65962 12.3631 2.65962 8.9167C2.65962 5.47024 5.4513 2.66668 8.88315 2.66668C12.315 2.66668 15.1067 5.47024 15.1067 8.9167C15.1067 12.3631 12.315 15.1667 8.88315 15.1667Z"/>
    </symbol>

    <symbol id="arrow-select" viewBox="0 0 14 9">
        <path d="M0.441942 2.09868C0.197864 1.8546 0.197864 1.45887 0.441942 1.2148L1.32583 0.330913C1.5699 0.0868355 1.96563 0.0868354 2.20971 0.330913L8.39689 6.5181C8.64097 6.76217 8.64097 7.1579 8.39689 7.40198L7.51301 8.28586C7.26893 8.52994 6.8732 8.52994 6.62913 8.28586L0.441942 2.09868Z"/>
        <path d="M11.9324 0.330913C12.1765 0.0868356 12.5722 0.0868353 12.8163 0.330913L13.7002 1.2148C13.9443 1.45887 13.9443 1.8546 13.7002 2.09868L7.51301 8.28586C7.26893 8.52994 6.8732 8.52994 6.62913 8.28586L5.74524 7.40198C5.50116 7.1579 5.50116 6.76217 5.74524 6.5181L11.9324 0.330913Z"/>
    </symbol>

    <symbol id="location" viewBox="0 0 12 14">
        <path d="M6 0C3.06 0 0.667969 2.39203 0.667969 5.33203C0.667969 6.49551 1.03547 7.60102 1.73164 8.52851L5.67133 13.8346C5.68117 13.8474 5.69621 13.8524 5.70715 13.8639C5.90402 14.0747 6.18813 14.0216 6.3284 13.8346C7.46289 12.3208 9.54238 9.49375 10.3419 8.42734C10.3419 8.42734 10.3422 8.42652 10.3425 8.42598L10.3474 8.41941C10.9916 7.51434 11.332 6.44684 11.332 5.33203C11.332 2.39203 8.94 0 6 0ZM6 8.20859C4.41707 8.20859 3.12344 6.91496 3.12344 5.33203C3.12344 3.7491 4.41707 2.45547 6 2.45547C7.58293 2.45547 8.87656 3.7491 8.87656 5.33203C8.87656 6.91496 7.58293 8.20859 6 8.20859Z"/>
    </symbol>

    <symbol id="calendar" viewBox="0 0 14 14">
        <g>
            <path d="M5.10071 7.7237C5.10071 7.54833 4.95846 7.40625 4.78294 7.40625H3.67404C3.49872 7.40625 3.35645 7.54833 3.35645 7.7237V8.83246C3.35645 9.00806 3.49872 9.1502 3.67404 9.1502H4.78294C4.95846 9.1502 5.10071 9.00806 5.10071 8.83246V7.7237Z"/>
            <path d="M7.87253 7.7237C7.87253 7.54833 7.73024 7.40625 7.55507 7.40625H6.44602C6.2707 7.40625 6.12842 7.54833 6.12842 7.7237V8.83246C6.12842 9.00806 6.2707 9.1502 6.44602 9.1502H7.55507C7.73024 9.1502 7.87253 9.00806 7.87253 8.83246V7.7237Z"/>
            <path d="M10.6432 7.7237C10.6432 7.54833 10.5009 7.40625 10.3256 7.40625H9.2167C9.04118 7.40625 8.89893 7.54833 8.89893 7.7237V8.83246C8.89893 9.00806 9.04118 9.1502 9.2167 9.1502H10.3256C10.5009 9.1502 10.6432 9.00806 10.6432 8.83246V7.7237Z"/>
            <path d="M5.10071 10.4954C5.10071 10.3197 4.95846 10.1777 4.78294 10.1777H3.67404C3.49872 10.1777 3.35645 10.3197 3.35645 10.4954V11.6039C3.35645 11.7794 3.49872 11.9215 3.67404 11.9215H4.78294C4.95846 11.9215 5.10071 11.7794 5.10071 11.6039V10.4954Z"/>
            <path d="M7.87253 10.4954C7.87253 10.3197 7.73024 10.1777 7.55507 10.1777H6.44602C6.2707 10.1777 6.12842 10.3197 6.12842 10.4954V11.6039C6.12842 11.7794 6.2707 11.9215 6.44602 11.9215H7.55507C7.73024 11.9215 7.87253 11.7794 7.87253 11.6039V10.4954Z"/>
            <path d="M10.6432 10.4954C10.6432 10.3197 10.5009 10.1777 10.3257 10.1777H9.2167C9.04118 10.1777 8.89893 10.3197 8.89893 10.4954V11.6039C8.89893 11.7794 9.04118 11.9215 9.2167 11.9215H10.3257C10.5009 11.9215 10.6432 11.7794 10.6432 11.6039V10.4954Z"/>
            <path d="M12.6264 1.55881V3.25234C12.6264 4.0178 12.0054 4.63464 11.2401 4.63464H10.3656C9.60015 4.63464 8.97095 4.0178 8.97095 3.25234V1.55273H5.02923V3.25234C5.02923 4.0178 4.40005 4.63464 3.63477 4.63464H2.76007C1.99475 4.63464 1.37381 4.0178 1.37381 3.25234V1.55881C0.704918 1.57898 0.155273 2.13246 0.155273 2.81277V12.7377C0.155273 13.4308 0.717049 14 1.41015 14H12.59C13.2821 14 13.8449 13.4296 13.8449 12.7377V2.81277C13.8449 2.13246 13.2953 1.57898 12.6264 1.55881ZM12.2202 12.1196C12.2202 12.4191 11.9773 12.6621 11.6777 12.6621H2.29859C1.99894 12.6621 1.75608 12.4191 1.75608 12.1196V6.99305C1.75608 6.69341 1.99891 6.45041 2.29859 6.45041H11.6777C11.9773 6.45041 12.2202 6.69341 12.2202 6.99305L12.2202 12.1196Z"/>
            <path d="M2.7567 3.72677H3.62173C3.8843 3.72677 4.09718 3.5142 4.09718 3.25163V0.475307C4.09718 0.212717 3.8843 0 3.62173 0H2.7567C2.49411 0 2.28125 0.212717 2.28125 0.475307V3.25163C2.28125 3.5142 2.49411 3.72677 2.7567 3.72677Z"/>
            <path d="M10.3543 3.72677H11.2194C11.4818 3.72677 11.6946 3.5142 11.6946 3.25163V0.475307C11.6947 0.212717 11.4818 0 11.2194 0H10.3543C10.0918 0 9.87891 0.212717 9.87891 0.475307V3.25163C9.87891 3.5142 10.0918 3.72677 10.3543 3.72677Z"/>
        </g>
    </symbol>

    <symbol id="oil" viewBox="0 0 10 13">
        <path d="M9.92188 4.53711C9.92188 4.43263 9.88201 4.33209 9.81039 4.25599L6.52914 0.76966C6.45163 0.687328 6.34356 0.640625 6.23047 0.640625H2.12891C2.01177 0.640625 1.9002 0.690719 1.82236 0.778273L0.181731 2.62398C0.115012 2.69906 0.078125 2.79602 0.078125 2.89648V10.1289C0.078125 10.4437 0.196988 10.7314 0.392195 10.9492C0.196988 11.1671 0.078125 11.4547 0.078125 11.7695C0.078125 12.448 0.630113 13 1.30859 13H8.69141C9.36989 13 9.92188 12.448 9.92188 11.7695C9.92188 11.4547 9.80301 11.1671 9.60781 10.9492C9.80304 10.7314 9.92188 10.4437 9.92188 10.1289V4.53711ZM5 10.539C4.32152 10.539 3.76953 9.98697 3.76953 9.30848C3.76953 9.13955 3.81779 8.83177 4.23506 8.11247C4.44582 7.74913 4.65377 7.44741 4.66252 7.43475C4.73911 7.3239 4.86525 7.2577 5 7.2577C5.13475 7.2577 5.26089 7.32388 5.33748 7.43475C5.34623 7.44741 5.55418 7.74913 5.76494 8.11247C6.18221 8.8318 6.23047 9.13955 6.23047 9.30848C6.23047 9.98697 5.67848 10.539 5 10.539ZM8.02359 5.70001C7.86497 5.84942 7.66309 5.92311 7.46124 5.92311C7.24295 5.92311 7.02543 5.83659 6.86402 5.66515L4.98026 3.66364C4.66944 3.3336 4.68546 2.81448 5.01509 2.50407C5.34554 2.19364 5.86505 2.20928 6.17466 2.53891L8.05843 4.54042C8.36924 4.87048 8.35322 5.38958 8.02359 5.70001Z"/>
        <path d="M4.58984 9.30913C4.58984 9.53482 4.77384 9.71882 5 9.71882C5.22605 9.71882 5.40996 9.53499 5.41016 9.30899C5.40666 9.18316 5.23617 8.82588 5.00008 8.42822C4.7638 8.82629 4.59318 9.18373 4.58984 9.30913Z"/>
    </symbol>

    <symbol id="transmission" viewBox="0 0 14 14">
        <path d="M8.05225 12.9062H7.50537V9.11827C8.27294 8.92 8.87849 8.31444 9.07679 7.54688H12.0718C12.3738 7.54688 12.6187 7.30204 12.6187 7V1.09375H13.1929C13.4949 1.09375 13.7397 0.848914 13.7397 0.546875C13.7397 0.244836 13.4949 0 13.1929 0H11.0054C10.7033 0 10.4585 0.244836 10.4585 0.546875C10.4585 0.848914 10.7033 1.09375 11.0054 1.09375H11.5249V6.45312H9.07679C8.87852 5.68556 8.27296 5.08 7.50537 4.88173V1.09375H8.05225C8.35429 1.09375 8.59912 0.848914 8.59912 0.546875C8.59912 0.244836 8.35429 0 8.05225 0H5.86475C5.56271 0 5.31787 0.244836 5.31787 0.546875C5.31787 0.848914 5.56271 1.09375 5.86475 1.09375H6.41162V4.88173C5.64405 5.08 5.0385 5.68556 4.8402 6.45312H2.28271V1.09375H2.82959C3.13163 1.09375 3.37646 0.848914 3.37646 0.546875C3.37646 0.244836 3.13163 0 2.82959 0H0.64209C0.340051 0 0.0952148 0.244836 0.0952148 0.546875C0.0952148 0.848914 0.340051 1.09375 0.64209 1.09375H1.18896V12.9062H0.64209C0.340051 12.9062 0.0952148 13.1511 0.0952148 13.4531C0.0952148 13.7552 0.340051 14 0.64209 14H2.82959C3.13163 14 3.37646 13.7552 3.37646 13.4531C3.37646 13.1511 3.13163 12.9062 2.82959 12.9062H2.28271V7.54688H4.8402C5.03847 8.31444 5.64403 8.92 6.41162 9.11827V12.9062H5.86475C5.56271 12.9062 5.31787 13.1511 5.31787 13.4531C5.31787 13.7552 5.56271 14 5.86475 14H8.05225C8.35429 14 8.59912 13.7552 8.59912 13.4531C8.59912 13.1511 8.35429 12.9062 8.05225 12.9062ZM5.86475 7C5.86475 6.39691 6.3554 5.90625 6.9585 5.90625C7.56159 5.90625 8.05225 6.39691 8.05225 7C8.05225 7.60309 7.56159 8.09375 6.9585 8.09375C6.3554 8.09375 5.86475 7.60309 5.86475 7ZM13.2115 11.961C13.6302 11.6692 13.905 11.1846 13.905 10.6367C13.905 9.74714 13.1812 9.02344 12.2917 9.02344C11.3713 9.02344 10.6226 9.77219 10.6226 10.6926V13.4531C10.6226 13.7552 10.8674 14 11.1694 14C11.4715 14 11.7163 13.7552 11.7163 13.4531V12.25H12.1318L12.8603 13.6983C12.9534 13.8833 13.1427 14 13.3498 14C13.7578 14 14.0227 13.5699 13.839 13.2055L13.2115 11.961ZM11.7163 10.6926C11.7163 10.3753 11.9744 10.1172 12.2917 10.1172C12.5782 10.1172 12.8112 10.3502 12.8112 10.6367C12.8112 10.9232 12.5782 11.1562 12.2917 11.1562H11.7163V10.6926Z"/>
    </symbol>

    <symbol id="arrow-left" viewBox="0 0 17 11">
        <path d="M6.45089 9.93655C6.61634 10.0946 6.61634 10.3508 6.45089 10.5088L6.06062 10.8815C5.89517 11.0395 5.62692 11.0395 5.46147 10.8815L0.124087 5.78406C-0.0413661 5.62605 -0.0413642 5.36986 0.124087 5.21184L0.514351 4.83912C0.679804 4.68111 0.948058 4.68111 1.11351 4.83912L6.45089 9.93655Z"/>
        <path d="M5.46575 0.118511C5.63121 -0.0395031 5.89946 -0.0395031 6.06491 0.118511L6.45518 0.491232C6.62063 0.649246 6.62063 0.905438 6.45518 1.06345L1.1178 6.16088C0.952345 6.31889 0.684094 6.31889 0.518641 6.16088L0.128375 5.78816C-0.0370784 5.63014 -0.0370784 5.37395 0.128375 5.21594L5.46575 0.118511Z"/>
        <path d="M17 5.64622C17 5.86969 16.8103 6.05084 16.5763 6.05084L1.83908 6.05084C1.60509 6.05084 1.41541 5.86969 1.41541 5.64622L1.41541 4.95764C1.41541 4.73417 1.60509 4.55301 1.83908 4.55301L16.5763 4.55302C16.8103 4.55302 17 4.73417 17 4.95764L17 5.64622Z"/>
    </symbol>


    <symbol id="checkbox" viewBox="0 0 15 12">
        <path d="M0.486328 6.33691L1.90054 4.9227L6.35914 9.3813L4.94493 10.7955L0.486328 6.33691Z"/>
        <path d="M13.4922 0.402344L14.9064 1.81656L5.43594 11.287L4.02173 9.87281L13.4922 0.402344Z"/>
    </symbol>

    <symbol id="close" viewBox="0 0 12 12">
        <path d="M10.2423 0.343262L11.6565 1.75748L1.75699 11.657L0.342773 10.2428L10.2423 0.343262Z"/>
        <path d="M11.6565 10.2428L10.2423 11.657L0.342806 1.75749L1.75702 0.343272L11.6565 10.2428Z"/>
    </symbol>

    <symbol id="burger" viewBox="0 0 25 18">
        <rect width="25" height="2"/>
        <rect y="8" width="25" height="2"/>
        <rect y="16" width="25" height="2"/>
    </symbol>

    <symbol id="tab-view1" viewBox="0 0 15 16">
        <path d="M0.524414 1.07324H3.2378V3.78662H0.524414V1.07324ZM6.09449 1.07324H8.80787V3.78662H6.09449V1.07324ZM11.6646 1.07324H14.3779V3.78662H11.6646V1.07324ZM0.524414 6.64331H3.2378V9.3567H0.524414V6.64331ZM6.09449 6.64331H8.80787V9.3567H6.09449V6.64331ZM11.6646 6.64331H14.3779V9.3567H11.6646V6.64331ZM0.524414 12.2134H3.2378V14.9268H0.524414V12.2134ZM6.09449 12.2134H8.80787V14.9268H6.09449V12.2134ZM11.6646 12.2134H14.3779V14.9268H11.6646V12.2134Z"/>
    </symbol>

    <symbol id="tab-view2" viewBox="0 0 19 14">
        <path d="M0.8479 0.116699H3.77647V3.04527H0.8479V0.116699Z"/>
        <path d="M6.00983 0.116699H18.0543V3.04179H6.00983V0.116699Z"/>
        <path d="M0.8479 5.54033H3.77647V8.4689H0.8479V5.54033Z"/>
        <path d="M6.00983 5.54033H18.0543V8.46542H6.00983V5.54033Z"/>
        <path d="M0.8479 10.9448H3.77647V13.8734H0.8479V10.9448Z"/>
        <path d="M6.00983 10.9448H18.0543V13.8699H6.00983V10.9448Z"/>
    </symbol>

    <symbol id="tab-view3" viewBox="0 0 17 14">
        <path d="M0.0491636 0.27832H16.8533V3.13503H0.0491636V0.27832Z"/>
        <path d="M0.0490723 5.57514H16.8532V8.4359H0.0490723V5.57514Z"/>
        <path d="M0.0490723 10.8533H16.8532V13.7216H0.0490723V10.8533Z"/>
    </symbol>

    <symbol id="filter" viewBox="0 0 22 16">
        <path d="M0.236328 2.0365H21.2153V3.29392H0.236328V2.0365Z" fill="#2AB051"/>
        <path fill-rule="evenodd" clip-rule="evenodd" d="M0.236328 2.0365V3.29392H21.2153V2.0365H0.236328Z"
              fill="#8FBA44"/>
        <path d="M2.51758 0.406616H6.64885V4.53788H2.51758V0.406616Z" fill="white"/>
        <path fill-rule="evenodd" clip-rule="evenodd"
              d="M5.64885 1.40662H3.51758V3.53788H5.64885V1.40662ZM2.51758 0.406616V4.53788H6.64885V0.406616H2.51758Z"
              fill="#8FBA44"/>
        <path d="M0.236328 12.5642H21.2153V13.8216H0.236328V12.5642Z" fill="#2AB051"/>
        <path fill-rule="evenodd" clip-rule="evenodd" d="M0.236328 12.5642V13.8216H21.2153V12.5642H0.236328Z"
              fill="#8FBA44"/>
        <path d="M8.66016 10.9343H12.7914V15.0656H8.66016V10.9343Z" fill="white"/>
        <path fill-rule="evenodd" clip-rule="evenodd"
              d="M11.7914 11.9343H9.66016V14.0656H11.7914V11.9343ZM8.66016 10.9343V15.0656H12.7914V10.9343H8.66016Z"
              fill="#8FBA44"/>
        <path d="M0.236328 7.06421H21.2153V8.32163H0.236328V7.06421Z" fill="#2AB051"/>
        <path fill-rule="evenodd" clip-rule="evenodd" d="M0.236328 7.06421V8.32163H21.2153V7.06421H0.236328Z"
              fill="#8FBA44"/>
        <path d="M15.0103 5.43433H19.1415V9.56559H15.0103V5.43433Z" fill="white"/>
        <path fill-rule="evenodd" clip-rule="evenodd"
              d="M18.1415 6.43433H16.0103V8.56559H18.1415V6.43433ZM15.0103 5.43433V9.56559H19.1415V5.43433H15.0103Z"
              fill="#8FBA44"/>
    </symbol>

    <symbol id="sorting" viewBox="0 0 19 12">
        <path fill-rule="evenodd" clip-rule="evenodd" d="M0 0V2H19V0H0Z" fill="#8FBA44"/>
        <path fill-rule="evenodd" clip-rule="evenodd" d="M0 10V12H7V10H0Z" fill="#8FBA44"/>
        <path fill-rule="evenodd" clip-rule="evenodd" d="M0 5V7H13V5H0Z" fill="#8FBA44"/>
    </symbol>


    <symbol id="phone2" viewBox="0 0 16 16">
        <path d="M14.9531 11.3829C13.7166 11.2697 12.5109 10.9554 11.3714 10.448C10.8114 10.1954 10.1566 10.424 9.88114 10.968L9.104 12.5109C6.74743 11.2046 4.79314 9.24914 3.48914 6.89486L5.03086 6.11886C5.57486 5.84571 5.80457 5.19086 5.55314 4.62857C5.04457 3.49029 4.72914 2.28571 4.61714 1.04686C4.56229 0.450286 4.07657 0 3.48571 0H0.571429C0.256 0 0 0.256 0 0.571429C0 2.89829 0.507429 5.14171 1.50743 7.24229C3.02629 10.3989 5.60114 12.9737 8.76 14.4937C10.8594 15.4937 13.1029 16 15.4286 16C15.744 16 16 15.744 16 15.4286V12.5143C16 11.9234 15.5497 11.4366 14.9531 11.3829Z"/>
    </symbol>

    <symbol id="camera" viewBox="0 0 31 28">
        <path d="M29.3974 9.08971H24.8554L23.8875 6.50849C23.7468 6.13317 23.388 5.88458 22.9872 5.88458H14.0128C13.612 5.88458 13.2532 6.13317 13.1125 6.50849L12.1446 9.08971H7.60256C6.7175 9.08971 6 9.80721 6 10.6923V23.5128C6 24.3979 6.7175 25.1154 7.60256 25.1154H29.3974C30.2825 25.1154 31 24.3979 31 23.5128V10.6923C31 9.80721 30.2825 9.08971 29.3974 9.08971ZM18.5 11.0128C21.8579 11.0128 24.5897 13.7446 24.5897 17.1025C24.5897 20.4604 21.8579 23.1923 18.5 23.1923C15.1421 23.1923 12.4103 20.4604 12.4103 17.1025C12.4103 13.7446 15.1421 11.0128 18.5 11.0128Z"
              fill="#8FBA44"/>
        <path d="M14.333 17.1025C14.333 19.4 16.2022 21.2692 18.4997 21.2692C20.7972 21.2692 22.6663 19.4 22.6663 17.1025C22.6663 14.805 20.7972 12.9359 18.4997 12.9359C16.2022 12.9359 14.333 14.805 14.333 17.1025Z"
              fill="#8FBA44"/>
        <path d="M5.88889 1.4H5.28889V2V5.28889L2 5.28889L1.4 5.28889V5.88889L1.4 8.11111V8.71111H2L5.28889 8.71111V12V12.6H5.88889H8.11111H8.71111V12V8.71111L12 8.71111H12.6V8.11111V5.88889V5.28889H12L8.71111 5.28889V2V1.4H8.11111H5.88889Z"
              fill="#8FBA44" stroke="white" stroke-width="1.2"/>
    </symbol>

    <symbol id="cube-tab" viewBox="0 0 15 16">
        <path d="M0.0244141 0.573242H3.7378V4.28662H0.0244141V0.573242Z"/>
        <path d="M5.59449 0.573242H9.30787V4.28662H5.59449V0.573242Z"/>
        <path d="M11.1646 0.573242H14.8779V4.28662H11.1646V0.573242Z"/>
        <path d="M0.0244141 6.14331H3.7378V9.8567H0.0244141V6.14331Z"/>
        <path d="M5.59449 6.14331H9.30787V9.8567H5.59449V6.14331Z"/>
        <path d="M11.1646 6.14331H14.8779V9.8567H11.1646V6.14331Z"/>
        <path d="M0.0244141 11.7134H3.7378V15.4268H0.0244141V11.7134Z"/>
        <path d="M5.59449 11.7134H9.30787V15.4268H5.59449V11.7134Z"/>
        <path d="M11.1646 11.7134H14.8779V15.4268H11.1646V11.7134Z"/>
    </symbol>

    <symbol id="line-tab" viewBox="0 0 19 14">
        <path d="M0.847656 0.116699H3.77623V3.04527H0.847656V0.116699Z"/>
        <path d="M6.00959 0.116699H18.0541V3.04179H6.00959V0.116699Z"/>
        <path d="M0.847656 5.54033H3.77623V8.4689H0.847656V5.54033Z"/>
        <path d="M6.00959 5.54033H18.0541V8.46542H6.00959V5.54033Z"/>
        <path d="M0.847656 10.9448H3.77623V13.8734H0.847656V10.9448Z"/>
        <path d="M6.00959 10.9448H18.0541V13.8699H6.00959V10.9448Z"/>
    </symbol>

    <symbol id="prev" viewBox="0 0 22 38">
        <path d="M20 2L3 19L20 36" stroke-width="3" stroke-linecap="round"/>
    </symbol>

    <symbol id="next" viewBox="0 0 22 38">
        <path d="M2 36L19 19L2 2" stroke-width="3" stroke-linecap="round"/>
    </symbol>

    <symbol id="image" viewBox="0 0 30 30">
        <path d="M27.1883 13.75V21.25C27.2617 21.8833 27.1909 22.5251 26.9813 23.1272C26.7717 23.7293 26.4287 24.2762 25.9778 24.727C25.527 25.1779 24.9801 25.5209 24.3779 25.7305C23.7758 25.9402 23.1341 26.0109 22.5008 25.9375H7.50078C6.86745 26.0109 6.22573 25.9402 5.62361 25.7305C5.02149 25.5209 4.47456 25.1779 4.02373 24.727C3.5729 24.2762 3.22985 23.7293 3.02024 23.1272C2.81062 22.5251 2.73987 21.8833 2.81328 21.25V8.75C2.73987 8.11668 2.81062 7.47495 3.02024 6.87283C3.22985 6.27071 3.5729 5.72378 4.02373 5.27295C4.47456 4.82212 5.02149 4.47907 5.62361 4.26946C6.22573 4.05985 6.86745 3.98909 7.50078 4.0625H16.2508C16.4994 4.0625 16.7379 4.16127 16.9137 4.33709C17.0895 4.5129 17.1883 4.75136 17.1883 5C17.1883 5.24864 17.0895 5.4871 16.9137 5.66291C16.7379 5.83873 16.4994 5.9375 16.2508 5.9375H7.50078C5.52953 5.9375 4.68828 6.77875 4.68828 8.75V20.3125L7.86328 17.1375C8.09929 16.9033 8.41829 16.7719 8.75078 16.7719C9.08326 16.7719 9.40227 16.9033 9.63828 17.1375L10.8133 18.3125C10.9301 18.427 11.0872 18.4912 11.2508 18.4912C11.4144 18.4912 11.5714 18.427 11.6883 18.3125L17.8633 12.1375C18.0993 11.9033 18.4183 11.7719 18.7508 11.7719C19.0833 11.7719 19.4023 11.9033 19.6383 12.1375L25.3133 17.8125V13.75C25.3133 13.5014 25.412 13.2629 25.5879 13.0871C25.7637 12.9113 26.0021 12.8125 26.2508 12.8125C26.4994 12.8125 26.7379 12.9113 26.9137 13.0871C27.0895 13.2629 27.1883 13.5014 27.1883 13.75ZM9.99203 9.6875C9.57701 9.68866 9.17942 9.85449 8.88658 10.1486C8.59373 10.4426 8.42957 10.8409 8.43015 11.2559C8.43073 11.6709 8.596 12.0688 8.88967 12.362C9.18334 12.6553 9.58139 12.82 9.9964 12.82C10.4114 12.82 10.8095 12.6553 11.1031 12.362C11.3968 12.0688 11.5621 11.6709 11.5627 11.2559C11.5632 10.8409 11.3991 10.4426 11.1062 10.1486C10.8134 9.85449 10.4158 9.68866 10.0008 9.6875H9.99203ZM21.2508 7.1875H22.8133V8.75C22.8133 8.99864 22.912 9.2371 23.0879 9.41291C23.2637 9.58873 23.5021 9.6875 23.7508 9.6875C23.9994 9.6875 24.2379 9.58873 24.4137 9.41291C24.5895 9.2371 24.6883 8.99864 24.6883 8.75V7.1875H26.2508C26.4994 7.1875 26.7379 7.08873 26.9137 6.91291C27.0895 6.7371 27.1883 6.49864 27.1883 6.25C27.1883 6.00136 27.0895 5.7629 26.9137 5.58709C26.7379 5.41127 26.4994 5.3125 26.2508 5.3125H24.6883V3.75C24.6883 3.50136 24.5895 3.2629 24.4137 3.08709C24.2379 2.91127 23.9994 2.8125 23.7508 2.8125C23.5021 2.8125 23.2637 2.91127 23.0879 3.08709C22.912 3.2629 22.8133 3.50136 22.8133 3.75V5.3125H21.2508C21.0021 5.3125 20.7637 5.41127 20.5879 5.58709C20.412 5.7629 20.3133 6.00136 20.3133 6.25C20.3133 6.49864 20.412 6.7371 20.5879 6.91291C20.7637 7.08873 21.0021 7.1875 21.2508 7.1875Z"/>
    </symbol>


</svg>