<svg width="70" height="70" viewBox="0 0 70 70" fill="none" xmlns="http://www.w3.org/2000/svg">
    <g clip-path="url(#clip0_1901_10867)">
        <path d="M41.9631 35.1437C41.7088 35.398 41.5625 35.7494 41.5625 36.1104C41.5625 36.4699 41.7088 36.8227 41.9631 37.0768C42.2174 37.3311 42.5701 37.4775 42.9297 37.4775C43.2893 37.4775 43.642 37.3312 43.8963 37.0768C44.1506 36.8227 44.2969 36.4699 44.2969 36.1104C44.2969 35.7493 44.1506 35.398 43.8963 35.1437C43.642 34.8881 43.2893 34.7432 42.9297 34.7432C42.5701 34.7432 42.2174 34.8881 41.9631 35.1437Z" fill="#8FBA44"/>
        <path d="M58.1131 24.4987C58.3674 24.2445 58.5137 23.8918 58.5137 23.5322C58.5137 23.1712 58.3674 22.8184 58.1131 22.5656C57.8588 22.3113 57.5061 22.165 57.1465 22.165C56.7855 22.165 56.4342 22.3112 56.1799 22.5656C55.9242 22.8199 55.7793 23.1713 55.7793 23.5322C55.7793 23.8918 55.9242 24.2445 56.1799 24.4987C56.4342 24.753 56.7855 24.8994 57.1465 24.8994C57.5061 24.8994 57.8588 24.7531 58.1131 24.4987Z" fill="#8FBA44"/>
        <path d="M14.7656 23.2422V21.6016H16.2494C16.8347 22.0046 17.4355 22.3861 18.0469 22.7503V33.8916C18.0469 35.8686 19.6554 37.4771 21.6323 37.4771H36.7773C37.5324 37.4771 38.1445 36.8648 38.1445 36.1099C38.1445 35.3549 37.5324 34.7427 36.7773 34.7427H26.6752C26.1439 31.7473 23.7768 29.3802 20.7814 28.8487V24.2108C23.4578 25.4801 26.3069 26.3919 29.2164 26.8978L34.1551 27.7565C34.4273 27.8038 34.6987 27.8268 34.9672 27.8268C35.3436 27.8268 35.7138 27.7806 36.0717 27.6942C37.5082 30.0511 40.1041 31.5539 42.9298 31.5539C47.3532 31.5539 50.9519 27.9552 50.9519 23.5318C50.9519 19.1084 47.3531 15.5096 42.9297 15.5096C40.4277 15.5096 38.1112 16.6638 36.6063 18.5936L30.2221 15.063C29.7538 14.8039 29.4629 14.3106 29.4629 13.7756C29.4629 12.9645 30.1227 12.3047 30.9338 12.3047H59.1843C59.7156 15.3001 62.0828 17.6672 65.0781 18.1986V28.8487C62.0828 29.38 59.7156 31.7472 59.1843 34.7427H49.082C48.3269 34.7427 47.7148 35.3549 47.7148 36.1099C47.7148 36.8648 48.3269 37.4771 49.082 37.4771H64.2271C66.204 37.4771 67.8125 35.8686 67.8125 33.8916V13.1559C67.8125 11.1788 66.204 9.57031 64.2271 9.57031H46.2667L39.4393 4.30568C37.6679 2.93973 35.4605 2.1875 33.2235 2.1875H14.7656V1.36719C14.7656 0.612227 14.1535 0 13.3984 0H1.36719C0.61209 0 0 0.612227 0 1.36719V23.2422C0 23.9971 0.61209 24.6094 1.36719 24.6094H13.3984C14.1535 24.6094 14.7656 23.9971 14.7656 23.2422ZM23.8716 34.7426H21.6323C21.163 34.7426 20.7812 34.3608 20.7812 33.8915V31.6522C22.2656 32.0864 23.4374 33.2582 23.8716 34.7426ZM42.9297 18.244C45.8454 18.244 48.2174 20.6161 48.2174 23.5316C48.2174 26.4473 45.8454 28.8194 42.9297 28.8194C41.0823 28.8194 39.3844 27.8447 38.4329 26.3133C38.8448 25.8703 39.1774 25.3433 39.3995 24.748C39.9696 23.2192 39.6849 21.5372 38.762 20.2805C39.7543 19.0075 41.28 18.244 42.9297 18.244ZM64.2271 34.7426H61.9877C62.422 33.2582 63.5938 32.0864 65.0781 31.6522V33.8915C65.0781 34.3608 64.6964 34.7426 64.2271 34.7426ZM65.0781 13.1559V15.3951C63.5938 14.9609 62.422 13.789 61.9877 12.3047H64.2271C64.6964 12.3047 65.0781 12.6865 65.0781 13.1559ZM33.2235 4.92188C34.8595 4.92188 36.4738 5.47203 37.7694 6.47104L41.7888 9.57031H30.9338C28.6151 9.57031 26.7285 11.4568 26.7285 13.7756C26.7285 15.3051 27.56 16.7152 28.8985 17.4557L35.9324 21.3458C36.7914 21.8209 37.1804 22.8726 36.8375 23.7923C36.5014 24.6929 35.5703 25.2272 34.6233 25.0625L29.6846 24.2037C25.3133 23.4437 21.0897 21.6855 17.4705 19.1193C17.2394 18.9554 16.963 18.8673 16.6797 18.8673H14.7656V4.92188H33.2235ZM12.0312 21.875H2.73438V2.73438H12.0312V21.875Z" fill="#8FBA44"/>
        <path d="M68.6332 45.3908H56.602C55.9114 45.3908 55.3421 45.9032 55.2494 46.5682C53.4769 45.7007 51.5331 45.2471 49.5249 45.2471C45.6642 45.2471 42.0234 46.9405 39.536 49.893L38.1602 51.5263H30.1641C27.544 51.5263 25.4125 53.6579 25.4125 56.2778C25.4125 56.7008 25.4688 57.1107 25.573 57.5012C24.313 56.9796 23.1558 56.2095 22.1625 55.2159L15.5163 48.5678C13.6686 46.7197 10.6552 46.7124 8.7988 48.5517C7.89249 49.4495 7.39169 50.6468 7.38869 51.9225C7.38568 53.1984 7.88087 54.3978 8.78308 55.3001L16.2106 62.7277C19.8423 66.3595 24.671 68.3595 29.8071 68.3595H55.2348V68.6329C55.2348 69.3879 55.8469 70.0001 56.602 70.0001H68.6332C69.3883 70.0001 70.0004 69.3879 70.0004 68.6329V46.7579C70.0004 46.003 69.3883 45.3908 68.6332 45.3908ZM29.8071 65.6251C25.4014 65.6251 21.2593 63.9095 18.1442 60.7942L10.7167 53.3667C10.3327 52.9826 10.1218 52.4721 10.1232 51.9291C10.1244 51.3859 10.3376 50.8763 10.7234 50.4942C11.5135 49.7112 12.7962 49.7142 13.5827 50.5012L20.2289 57.1493C22.7304 59.6515 26.0567 61.0295 29.5948 61.0295H45.0518C45.8069 61.0295 46.419 60.4172 46.419 59.6623C46.419 58.9073 45.8069 58.2951 45.0518 58.2951H30.1641C29.0518 58.2951 28.1468 57.3902 28.1468 56.2778C28.1468 55.1655 29.0518 54.2607 30.1641 54.2607H38.7963C39.1994 54.2607 39.5821 54.0827 39.8419 53.7742L41.6274 51.6545C43.594 49.3202 46.4725 47.9813 49.525 47.9813C51.5733 47.9813 53.538 48.5756 55.2348 49.7038V65.6251H29.8071ZM67.266 67.2658H57.9692V48.1251H67.266V67.2658Z" fill="#8FBA44"/>
    </g>
    <defs>
        <clipPath id="clip0_1901_10867">
            <rect width="70" height="70" fill="white"/>
        </clipPath>
    </defs>
</svg>
