<svg width="70" height="70" viewBox="0 0 70 70" fill="none" xmlns="http://www.w3.org/2000/svg">
    <g clip-path="url(#clip0_1901_10813)">
        <path d="M66.2129 1.38086H3.78711C1.69887 1.38086 0 3.07959 0 5.16797V49.3637C0 51.4519 1.69887 53.1508 3.78711 53.1508H9.84375C10.4102 53.1508 10.8691 52.6918 10.8691 52.1254C10.8691 51.559 10.4102 51.1 9.84375 51.1H3.78711C2.82967 51.1 2.05078 50.3211 2.05078 49.3637V5.16797C2.05078 4.21053 2.82967 3.43164 3.78711 3.43164H66.2129C67.1703 3.43164 67.9492 4.21053 67.9492 5.16797V49.3637C67.9492 50.3211 67.1703 51.1 66.2129 51.1H14.6289C14.0625 51.1 13.6035 51.559 13.6035 52.1254C13.6035 52.6918 14.0625 53.1508 14.6289 53.1508H25.6266C25.4313 54.9516 24.6261 58.8528 21.3251 62.1484H17.8746C16.8522 62.1484 16.0206 62.98 16.0206 64.0023V66.7654C16.0206 67.7878 16.8522 68.6194 17.8746 68.6194H43.3795C43.9459 68.6194 44.4049 68.1604 44.4049 67.594C44.4049 67.0276 43.9459 66.5686 43.3795 66.5686H18.0715V64.1993H51.9285V66.5686H48.1646C47.5982 66.5686 47.1393 67.0276 47.1393 67.594C47.1393 68.1604 47.5982 68.6194 48.1646 68.6194H52.1254C53.1478 68.6194 53.9794 67.7878 53.9794 66.7654V64.0023C53.9794 62.98 53.1478 62.1484 52.1254 62.1484H48.675C45.3924 58.869 44.5782 54.9559 44.3771 53.1508H66.2129C68.3011 53.1508 70 51.4519 70 49.3637V5.16797C70 3.07959 68.3011 1.38086 66.2129 1.38086ZM45.9287 62.1482H24.0712C26.8537 58.6473 27.5289 54.9235 27.6898 53.1506H42.3101C42.4711 54.9236 43.1463 58.6473 45.9287 62.1482Z" fill="#8FBA44"/>
        <path d="M57.7348 44.5879H64.5543C65.1207 44.5879 65.5797 44.1289 65.5797 43.5625V6.82617C65.5797 6.25975 65.1207 5.80078 64.5543 5.80078H5.44531C4.87889 5.80078 4.41992 6.25975 4.41992 6.82617V43.5625C4.41992 44.1289 4.87889 44.5879 5.44531 44.5879H52.9496C53.516 44.5879 53.975 44.1289 53.975 43.5625C53.975 42.9961 53.516 42.5371 52.9496 42.5371H6.4707V7.85156H63.5289V42.5371H57.7348C57.1683 42.5371 56.7094 42.9961 56.7094 43.5625C56.7094 44.1289 57.1683 44.5879 57.7348 44.5879Z" fill="#8FBA44"/>
        <path d="M17.2437 12.4883C17.2437 11.9219 16.7847 11.4629 16.2183 11.4629H9.86523C9.29881 11.4629 8.83984 11.9219 8.83984 12.4883V18.0125C8.83984 18.579 9.29881 19.0379 9.86523 19.0379H16.2183C16.7847 19.0379 17.2437 18.579 17.2437 18.0125V12.4883ZM15.1929 16.9871H10.8906V13.5137H15.1929V16.9871Z" fill="#8FBA44"/>
        <path d="M21.7422 19.0381H38.8676C39.434 19.0381 39.893 18.5791 39.893 18.0127C39.893 17.4463 39.434 16.9873 38.8676 16.9873H21.7422C21.1758 16.9873 20.7168 17.4463 20.7168 18.0127C20.7168 18.5791 21.1759 19.0381 21.7422 19.0381Z" fill="#8FBA44"/>
        <path d="M43.8389 11.4629H29.752C29.1855 11.4629 28.7266 11.9219 28.7266 12.4883C28.7266 13.0547 29.1855 13.5137 29.752 13.5137H43.8389C44.4053 13.5137 44.8643 13.0547 44.8643 12.4883C44.8643 11.9219 44.4053 11.4629 43.8389 11.4629Z" fill="#8FBA44"/>
        <path d="M21.7422 13.5137H24.9186C25.485 13.5137 25.944 13.0547 25.944 12.4883C25.944 11.9219 25.485 11.4629 24.9186 11.4629H21.7422C21.1758 11.4629 20.7168 11.9219 20.7168 12.4883C20.7168 13.0547 21.1759 13.5137 21.7422 13.5137Z" fill="#8FBA44"/>
        <path d="M17.2437 22.4321C17.2437 21.8657 16.7847 21.4067 16.2183 21.4067H9.86523C9.29881 21.4067 8.83984 21.8657 8.83984 22.4321V27.9564C8.83984 28.5228 9.29881 28.9818 9.86523 28.9818H16.2183C16.7847 28.9818 17.2437 28.5228 17.2437 27.9564V22.4321ZM15.1929 26.931H10.8906V23.4575H15.1929V26.931Z" fill="#8FBA44"/>
        <path d="M21.7422 28.9819H38.8676C39.434 28.9819 39.893 28.523 39.893 27.9565C39.893 27.3901 39.434 26.9312 38.8676 26.9312H21.7422C21.1758 26.9312 20.7168 27.3901 20.7168 27.9565C20.7168 28.523 21.1759 28.9819 21.7422 28.9819Z" fill="#8FBA44"/>
        <path d="M43.8389 21.4067H29.752C29.1855 21.4067 28.7266 21.8657 28.7266 22.4321C28.7266 22.9986 29.1855 23.4575 29.752 23.4575H43.8389C44.4053 23.4575 44.8643 22.9986 44.8643 22.4321C44.8643 21.8657 44.4053 21.4067 43.8389 21.4067Z" fill="#8FBA44"/>
        <path d="M21.7422 23.4575H24.9186C25.485 23.4575 25.944 22.9986 25.944 22.4321C25.944 21.8657 25.485 21.4067 24.9186 21.4067H21.7422C21.1758 21.4067 20.7168 21.8657 20.7168 22.4321C20.7168 22.9986 21.1759 23.4575 21.7422 23.4575Z" fill="#8FBA44"/>
        <path d="M16.2183 31.3506H9.86523C9.29881 31.3506 8.83984 31.8096 8.83984 32.376V37.9004C8.83984 38.4668 9.29881 38.9258 9.86523 38.9258H16.2183C16.7847 38.9258 17.2437 38.4668 17.2437 37.9004V32.376C17.2437 31.8096 16.7847 31.3506 16.2183 31.3506ZM15.1929 36.875H10.8906V33.4014H15.1929V36.875Z" fill="#8FBA44"/>
        <path d="M21.7422 38.9258H38.8676C39.434 38.9258 39.893 38.4668 39.893 37.9004C39.893 37.334 39.434 36.875 38.8676 36.875H21.7422C21.1758 36.875 20.7168 37.334 20.7168 37.9004C20.7168 38.4668 21.1759 38.9258 21.7422 38.9258Z" fill="#8FBA44"/>
        <path d="M44.8643 32.376C44.8643 31.8096 44.4053 31.3506 43.8389 31.3506H29.752C29.1855 31.3506 28.7266 31.8096 28.7266 32.376C28.7266 32.9424 29.1855 33.4014 29.752 33.4014H43.8389C44.4053 33.4014 44.8643 32.9423 44.8643 32.376Z" fill="#8FBA44"/>
        <path d="M21.7422 33.4014H24.9186C25.485 33.4014 25.944 32.9424 25.944 32.376C25.944 31.8096 25.485 31.3506 24.9186 31.3506H21.7422C21.1758 31.3506 20.7168 31.8096 20.7168 32.376C20.7168 32.9424 21.1759 33.4014 21.7422 33.4014Z" fill="#8FBA44"/>
        <path d="M61.1595 29.5406C61.1401 29.105 60.8475 28.7293 60.4298 28.604L48.5525 25.0409C48.1909 24.9323 47.7996 25.0313 47.5327 25.2979C47.2661 25.5647 47.1673 25.9564 47.2757 26.3177L50.8389 38.195C50.9641 38.6127 51.3398 38.9053 51.7754 38.9247C51.7907 38.9255 51.8061 38.9258 51.8213 38.9258C52.2389 38.9258 52.6169 38.6717 52.7732 38.2811L54.9853 32.7505L60.5159 30.5382C60.9208 30.3765 61.1789 29.9762 61.1595 29.5406ZM53.8156 31.0096C53.555 31.1139 53.3486 31.3202 53.2443 31.581L51.9595 34.7933L49.7872 27.5524L57.0281 29.7247L53.8156 31.0096Z" fill="#8FBA44"/>
    </g>
    <defs>
        <clipPath id="clip0_1901_10813">
            <rect width="70" height="70" fill="white"/>
        </clipPath>
    </defs>
</svg>
