<svg width="70" height="70" viewBox="0 0 70 70" fill="none" xmlns="http://www.w3.org/2000/svg">
    <path d="M45.6192 29.8528L43.4416 27.6653C43.3398 27.5633 43.219 27.4824 43.0859 27.4272C42.9528 27.372 42.8102 27.3437 42.6661 27.3438H41.0539L37.6534 22.2425C37.3538 21.7931 36.9479 21.4245 36.4716 21.1696C35.9954 20.9147 35.4636 20.7813 34.9234 20.7813H23.2269C22.6171 20.7791 22.019 20.9479 21.5003 21.2684C20.9817 21.589 20.5632 22.0484 20.2923 22.5947L17.9178 27.3438H15.3125C14.7323 27.3438 14.1759 27.5742 13.7657 27.9845C13.3555 28.3947 13.125 28.9511 13.125 29.5313V35C13.125 35.2901 13.2402 35.5683 13.4454 35.7734C13.6505 35.9785 13.9287 36.0938 14.2188 36.0938H16.6075C16.8302 36.7331 17.2464 37.2873 17.7983 37.6795C18.3502 38.0716 19.0105 38.2823 19.6875 38.2823C20.3645 38.2823 21.0248 38.0716 21.5767 37.6795C22.1286 37.2873 22.5448 36.7331 22.7675 36.0938H36.295C36.5177 36.7331 36.9339 37.2873 37.4858 37.6795C38.0377 38.0716 38.698 38.2823 39.375 38.2823C40.052 38.2823 40.7123 38.0716 41.2642 37.6795C41.8161 37.2873 42.2323 36.7331 42.455 36.0938H44.8438C45.1338 36.0938 45.412 35.9785 45.6171 35.7734C45.8223 35.5683 45.9375 35.2901 45.9375 35V30.625C45.9377 30.3357 45.8233 30.058 45.6192 29.8528ZM35.8334 23.4555L38.4256 27.3438H29.5312V22.9688H34.9234C35.1035 22.9687 35.2807 23.0132 35.4394 23.0981C35.5982 23.183 35.7335 23.3057 35.8334 23.4555ZM22.2491 23.5736C22.3392 23.3915 22.4786 23.2383 22.6515 23.1314C22.8243 23.0244 23.0236 22.9681 23.2269 22.9688H27.3438V27.3438H20.3634L22.2491 23.5736ZM19.6875 36.0938C19.4712 36.0938 19.2597 36.0296 19.0798 35.9094C18.9 35.7893 18.7598 35.6184 18.677 35.4186C18.5942 35.2187 18.5726 34.9988 18.6148 34.7866C18.657 34.5745 18.7611 34.3796 18.9141 34.2266C19.0671 34.0737 19.262 33.9695 19.4741 33.9273C19.6863 33.8851 19.9062 33.9067 20.1061 33.9895C20.3059 34.0723 20.4767 34.2125 20.5969 34.3924C20.7171 34.5722 20.7812 34.7837 20.7812 35C20.7812 35.2901 20.666 35.5683 20.4609 35.7734C20.2558 35.9785 19.9776 36.0938 19.6875 36.0938ZM39.375 36.0938C39.1587 36.0938 38.9472 36.0296 38.7673 35.9094C38.5875 35.7893 38.4473 35.6184 38.3645 35.4186C38.2817 35.2187 38.2601 34.9988 38.3023 34.7866C38.3445 34.5745 38.4486 34.3796 38.6016 34.2266C38.7546 34.0737 38.9495 33.9695 39.1616 33.9273C39.3738 33.8851 39.5937 33.9067 39.7936 33.9895C39.9934 34.0723 40.1642 34.2125 40.2844 34.3924C40.4046 34.5722 40.4688 34.7837 40.4688 35C40.4688 35.2901 40.3535 35.5683 40.1484 35.7734C39.9433 35.9785 39.6651 36.0938 39.375 36.0938ZM43.75 33.9063H42.455C42.2323 33.2669 41.8161 32.7127 41.2642 32.3206C40.7123 31.9284 40.052 31.7177 39.375 31.7177C38.698 31.7177 38.0377 31.9284 37.4858 32.3206C36.9339 32.7127 36.5177 33.2669 36.295 33.9063H22.7675C22.5448 33.2669 22.1286 32.7127 21.5767 32.3206C21.0248 31.9284 20.3645 31.7177 19.6875 31.7177C19.0105 31.7177 18.3502 31.9284 17.7983 32.3206C17.2464 32.7127 16.8302 33.2669 16.6075 33.9063H15.3125V29.5313H42.2122L43.75 31.0767V33.9063Z" fill="#8FBA44"/>
    <path d="M29.5313 7.65625C25.2048 7.65625 20.9755 8.9392 17.3782 11.3429C13.7808 13.7465 10.9771 17.1629 9.3214 21.16C7.66573 25.1572 7.23253 29.5555 8.07658 33.7989C8.92063 38.0422 11.004 41.9399 14.0633 44.9992C17.1226 48.0585 21.0203 50.1419 25.2637 50.9859C29.507 51.83 33.9053 51.3968 37.9025 49.7411C41.8996 48.0854 45.316 45.2817 47.7197 41.6843C50.1233 38.087 51.4063 33.8577 51.4063 29.5312C51.3996 23.7317 49.0928 18.1716 44.9919 14.0706C40.891 9.96973 35.3308 7.66291 29.5313 7.65625ZM29.5313 49.2188C25.6374 49.2188 21.8311 48.0641 18.5935 45.9008C15.3559 43.7375 12.8325 40.6628 11.3424 37.0653C9.85228 33.4679 9.4624 29.5094 10.222 25.6904C10.9817 21.8714 12.8567 18.3634 15.6101 15.6101C18.3634 12.8567 21.8714 10.9817 25.6904 10.222C29.5094 9.46239 33.4679 9.85227 37.0653 11.3424C40.6628 12.8325 43.7375 15.3559 45.9008 18.5935C48.0641 21.8311 49.2188 25.6374 49.2188 29.5312C49.2127 34.7508 47.1365 39.7549 43.4457 43.4457C39.7549 47.1365 34.7508 49.2127 29.5313 49.2188Z" fill="#8FBA44"/>
    <path d="M65.108 54.2754L53.5 42.6816C56.6685 36.9065 57.6473 30.1821 56.2568 23.7433C54.8662 17.3045 51.1996 11.5834 45.9302 7.63057C40.6607 3.67771 34.1422 1.75839 27.5715 2.22503C21.0008 2.69168 14.819 5.51296 10.1611 10.1709C5.5032 14.8287 2.68191 21.0106 2.21527 27.5813C1.74862 34.152 3.66794 40.6705 7.62081 45.9399C11.5737 51.2093 17.2948 54.876 23.7336 56.2665C30.1724 57.6571 36.8967 56.6783 42.6719 53.5098L54.2776 65.109C55.7143 66.5449 57.6625 67.3513 59.6936 67.3508C61.7248 67.3503 63.6726 66.5429 65.1085 65.1063C66.5444 63.6696 67.3508 61.7214 67.3503 59.6903C67.3498 57.6591 66.5424 55.7113 65.1058 54.2754H65.108ZM4.37531 29.5315C4.37531 24.556 5.85069 19.6923 8.6149 15.5554C11.3791 11.4185 15.308 8.19415 19.9047 6.29013C24.5014 4.38612 29.5595 3.88794 34.4393 4.8586C39.3191 5.82926 43.8015 8.22516 47.3197 11.7433C50.8379 15.2615 53.2338 19.7439 54.2044 24.6237C55.1751 29.5036 54.6769 34.5617 52.7729 39.1584C50.8689 43.7551 47.6445 47.6839 43.5076 50.4481C39.3707 53.2123 34.507 54.6877 29.5316 54.6877C22.862 54.6802 16.4678 52.0274 11.7517 47.3113C7.03563 42.5952 4.38283 36.201 4.37531 29.5315ZM52.3319 44.6023L54.2787 46.548L46.5481 54.2787L44.6023 52.3318C47.6688 50.2968 50.2969 47.6687 52.3319 44.6023ZM63.5614 63.5613C62.5334 64.584 61.1423 65.158 59.6923 65.158C58.2422 65.158 56.8511 64.584 55.8231 63.5613L48.0936 55.8252L55.8253 48.0935L63.5592 55.8209C64.5828 56.8487 65.1577 58.2401 65.1581 59.6906C65.1585 61.1412 64.5844 62.5329 63.5614 63.5613Z" fill="#8FBA44"/>
    <path d="M21.875 14.2188H24.0625V16.4062H21.875V14.2188Z" fill="#8FBA44"/>
    <path d="M29.5312 16.4062H31.7188V18.5938H29.5312V16.4062Z" fill="#8FBA44"/>
    <path d="M29.5312 40.4688H31.7188V42.6562H29.5312V40.4688Z" fill="#8FBA44"/>
    <path d="M21.875 41.5625H24.0625V43.75H21.875V41.5625Z" fill="#8FBA44"/>
    <path d="M37.1875 14.2188H39.375V16.4062H37.1875V14.2188Z" fill="#8FBA44"/>
    <path d="M54.6875 8.75H56.875V6.5625H59.0625V4.375H56.875V2.1875H54.6875V4.375H52.5V6.5625H54.6875V8.75Z" fill="#8FBA44"/>
    <path d="M62.3438 29.5312H64.5312V27.3438H66.7188V25.1562H64.5312V22.9688H62.3438V25.1562H60.1562V27.3438H62.3438V29.5312Z" fill="#8FBA44"/>
    <path d="M38.2812 61.25H36.0938V63.4375H33.9062V65.625H36.0938V67.8125H38.2812V65.625H40.4688V63.4375H38.2812V61.25Z" fill="#8FBA44"/>
    <path d="M9.84375 52.5H7.65625V54.6875H5.46875V56.875H7.65625V59.0625H9.84375V56.875H12.0312V54.6875H9.84375V52.5Z" fill="#8FBA44"/>
</svg>
