<svg width="70" height="70" viewBox="0 0 70 70" fill="none" xmlns="http://www.w3.org/2000/svg">
    <path d="M31.7286 46.8055L38.7598 40.9461C39.6794 40.1827 40.7826 39.6728 41.9599 39.4671C43.1373 39.2614 44.348 39.3669 45.472 39.7733L52.8569 42.4587C53.2163 42.5896 53.5958 42.6564 53.9782 42.6562H67.8116V40.4688H61.2491V5.46875C61.2481 4.59881 60.9021 3.76478 60.287 3.14964C59.6718 2.5345 58.8378 2.18848 57.9679 2.1875H12.0304C11.1604 2.18848 10.3264 2.5345 9.71126 3.14964C9.09612 3.76478 8.7501 4.59881 8.74912 5.46875V40.4604L2.18742 40.4554L2.18582 42.6429L19.3299 42.656H19.3327C19.6853 42.6561 20.0355 42.5992 20.3699 42.4876L29.5397 39.4311C29.6512 39.3939 29.7679 39.375 29.8854 39.375H37.2282L30.3283 45.125C29.9055 45.4754 29.5559 45.9058 29.2997 46.3915C29.0435 46.8773 28.8857 47.4088 28.8352 47.9556C28.7848 48.5024 28.8427 49.0538 29.0057 49.5782C29.1687 50.1026 29.4336 50.5897 29.7851 51.0116C30.1367 51.4335 30.568 51.7818 31.0544 52.0367C31.5408 52.2916 32.0727 52.4481 32.6196 52.4971C33.1666 52.5461 33.7179 52.4867 34.2418 52.3223C34.7658 52.1579 35.2522 51.8918 35.6731 51.5391L39.307 48.511L48.9913 58.1953C49.1053 58.3091 49.1958 58.4443 49.2575 58.5931C49.3193 58.742 49.3511 58.9015 49.3511 59.0626C49.3512 59.2238 49.3195 59.3833 49.2579 59.5322C49.1963 59.6811 49.1059 59.8163 48.992 59.9303C48.878 60.0442 48.7428 60.1346 48.5939 60.1962C48.445 60.2579 48.2855 60.2896 48.1243 60.2895C47.9632 60.2895 47.8037 60.2577 47.6548 60.1959C47.506 60.1342 47.3708 60.0438 47.2569 59.9297L46.1632 58.836L39.0538 51.7266L37.5069 53.2734L44.6163 60.3828C44.7303 60.4966 44.8208 60.6318 44.8825 60.7806C44.9443 60.9295 44.9761 61.089 44.9761 61.2501C44.9762 61.4113 44.9445 61.5708 44.8829 61.7197C44.8213 61.8686 44.7309 62.0038 44.617 62.1178C44.503 62.2317 44.3678 62.3221 44.2189 62.3837C44.07 62.4454 43.9105 62.4771 43.7493 62.477C43.5882 62.477 43.4287 62.4452 43.2798 62.3834C43.131 62.3217 42.9958 62.2313 42.8819 62.1172L41.7882 61.0235L36.8663 56.1016L35.3194 57.6484L40.2413 62.5703C40.3553 62.6841 40.4458 62.8193 40.5075 62.9681C40.5693 63.117 40.6011 63.2765 40.6011 63.4376C40.6012 63.5988 40.5695 63.7583 40.5079 63.9072C40.4463 64.0561 40.3559 64.1913 40.242 64.3053C40.128 64.4192 39.9928 64.5096 39.8439 64.5712C39.695 64.6329 39.5355 64.6646 39.3743 64.6645C39.2132 64.6645 39.0537 64.6327 38.9048 64.5709C38.756 64.5092 38.6208 64.4188 38.5069 64.3047L36.3194 62.1172L35.1132 60.911C35.0322 60.0904 34.6566 59.327 34.0558 58.7621C33.455 58.1973 32.6699 57.8694 31.8459 57.8392C31.8143 56.979 31.4585 56.1626 30.8499 55.5539C30.2412 54.9453 29.4248 54.5894 28.5646 54.5579C28.5442 54.0246 28.399 53.5035 28.1408 53.0364C27.8826 52.5693 27.5185 52.1692 27.0778 51.8683C26.637 51.5673 26.1319 51.3739 25.6028 51.3034C25.0738 51.233 24.5356 51.2875 24.0314 51.4626C23.8536 50.9047 23.5353 50.4018 23.1069 50.0025C22.6786 49.6032 22.1547 49.3208 21.5857 49.1825C21.0166 49.0443 20.4216 49.0547 19.8577 49.213C19.2939 49.3712 18.7803 49.6718 18.3663 50.086L16.1788 52.2735C15.8617 52.5902 15.6104 52.9663 15.4391 53.3804C15.2678 53.7944 15.1799 54.2382 15.1806 54.6863L2.18768 54.6741L2.18555 56.8616L8.74912 56.8678V64.5312C8.7501 65.4012 9.09612 66.2352 9.71126 66.8504C10.3264 67.4655 11.1604 67.8115 12.0304 67.8125H22.9679V65.625H12.0304C11.7404 65.6247 11.4624 65.5093 11.2573 65.3043C11.0523 65.0992 10.937 64.8212 10.9366 64.5312V56.8699L15.9723 56.8746C16.0374 56.9524 16.1057 57.0284 16.1788 57.1015C16.7864 57.7123 17.6038 58.0687 18.4649 58.0983C18.4964 58.9585 18.8522 59.7749 19.4609 60.3836C20.0695 60.9922 20.8859 61.3481 21.7461 61.3796C21.7665 61.9129 21.9117 62.434 22.1699 62.9011C22.4281 63.3682 22.7922 63.7683 23.233 64.0692C23.6737 64.3702 24.1789 64.5636 24.7079 64.6341C25.237 64.7045 25.7751 64.65 26.2793 64.4749C26.4287 64.9432 26.6774 65.3736 27.0085 65.7369C27.3396 66.1002 27.7452 66.3877 28.1976 66.5799C28.65 66.772 29.1386 66.8641 29.6299 66.8501C30.1212 66.836 30.6037 66.716 31.0444 66.4983L31.4913 66.9453C31.8831 67.3375 32.3646 67.6284 32.8941 67.7927C33.4237 67.9571 33.9852 67.9899 34.5303 67.8883C35.0754 67.7868 35.5874 67.5539 36.0223 67.2099C36.4571 66.866 36.8015 66.4212 37.0258 65.9141C37.4448 66.3122 37.9582 66.5973 38.5176 66.7426C39.077 66.8878 39.6642 66.8886 40.224 66.7447C40.7837 66.6008 41.2978 66.317 41.7178 65.92C42.1378 65.523 42.4501 65.0257 42.6252 64.4749C43.0558 64.625 43.5121 64.6874 43.9671 64.6582C44.4222 64.629 44.8668 64.5089 45.2746 64.305C45.6825 64.1011 46.0453 63.8174 46.3417 63.4709C46.6381 63.1244 46.862 62.7219 47.0002 62.2874C47.6039 62.4977 48.2545 62.5342 48.8779 62.3929C49.5014 62.2516 50.0726 61.9381 50.5266 61.488C50.9807 61.038 51.2992 60.4695 51.446 59.8473C51.5928 59.2252 51.562 58.5743 51.357 57.9688H53.3552C54.4403 57.9699 55.501 57.6471 56.4015 57.0418L58.0241 55.9534C58.2043 55.8323 58.4165 55.7677 58.6336 55.7679H59.0616V64.5312C59.0613 64.8212 58.9459 65.0992 58.7409 65.3043C58.5359 65.5093 58.2579 65.6247 57.9679 65.625H47.0304V67.8125H57.9679C58.8378 67.8115 59.6718 67.4655 60.287 66.8504C60.9021 66.2352 61.2481 65.4012 61.2491 64.5312V55.7679H67.8116V53.5804H58.6336C57.9825 53.5798 57.3461 53.7734 56.8058 54.1366L55.1829 55.2251C54.6426 55.5883 54.0062 55.7819 53.3552 55.7812H49.671L44.038 50.1483C45.9328 50.2028 47.7851 49.5814 49.2637 48.3952L49.9011 47.8853L48.5347 46.1772L47.8973 46.687C46.7796 47.5829 45.3705 48.0346 43.9403 47.9554C42.5101 47.8762 41.1595 47.2717 40.1476 46.2579L39.4413 45.5516L34.2727 49.8586C33.8678 50.1959 33.3455 50.3585 32.8208 50.3107C32.296 50.2629 31.8117 50.0086 31.4744 49.6038C31.1371 49.199 30.9743 48.6768 31.022 48.152C31.0697 47.6272 31.3238 47.1429 31.7286 46.8055ZM29.8854 37.1875C29.5327 37.1874 29.1824 37.2442 28.8478 37.3559L19.6779 40.4124C19.5666 40.4496 19.4499 40.4686 19.3325 40.4685H19.3316L10.9366 40.4621V5.46875C10.937 5.17877 11.0523 4.90076 11.2573 4.69572C11.4624 4.49067 11.7404 4.37533 12.0304 4.375H57.9679C58.2579 4.37533 58.5359 4.49067 58.7409 4.69572C58.9459 4.90076 59.0613 5.17877 59.0616 5.46875V40.4688H53.9782C53.8507 40.4688 53.7242 40.4465 53.6045 40.4029L46.2197 37.7175C45.0791 37.3039 43.8667 37.1251 42.6554 37.192V37.1875H29.8854ZM18.5929 55.914C18.3503 55.914 18.1132 55.842 17.9115 55.7072C17.7098 55.5725 17.5526 55.3809 17.4598 55.1568C17.367 54.9327 17.3427 54.6861 17.39 54.4482C17.4374 54.2103 17.5542 53.9918 17.7257 53.8203L19.9132 51.6328C20.1433 51.403 20.4551 51.2741 20.7802 51.2742C21.1054 51.2743 21.4171 51.4035 21.647 51.6334C21.8769 51.8633 22.0061 52.1751 22.0062 52.5002C22.0063 52.8253 21.8773 53.1372 21.6475 53.3672L19.46 55.5547C19.3464 55.669 19.2113 55.7596 19.0624 55.8212C18.9136 55.8829 18.754 55.9144 18.5929 55.914ZM21.8741 59.1952C21.6316 59.1952 21.3944 59.1233 21.1928 58.9885C20.9911 58.8537 20.8339 58.6622 20.7411 58.4381C20.6482 58.214 20.624 57.9674 20.6713 57.7295C20.7186 57.4916 20.8354 57.273 21.0069 57.1015L23.1944 54.914L24.2882 53.8203C24.5183 53.5905 24.8301 53.4616 25.1552 53.4617C25.4804 53.4618 25.7921 53.591 26.022 53.8209C26.2519 54.0508 26.3811 54.3626 26.3812 54.6877C26.3813 55.0128 26.2523 55.3247 26.0225 55.5547L22.7413 58.836C22.6277 58.9502 22.4925 59.0408 22.3437 59.1025C22.1948 59.1641 22.0352 59.1957 21.8741 59.1952ZM26.0225 62.1172C25.7925 62.347 25.4806 62.4759 25.1555 62.4758C24.8304 62.4757 24.5186 62.3465 24.2887 62.1166C24.0588 61.8867 23.9297 61.5749 23.9296 61.2498C23.9295 60.9247 24.0585 60.6128 24.2882 60.3828L27.5694 57.1015C27.7995 56.8718 28.1114 56.7428 28.4365 56.7429C28.7616 56.7431 29.0734 56.8723 29.3033 57.1022C29.5331 57.3321 29.6623 57.6439 29.6624 57.969C29.6625 58.2941 29.5335 58.6059 29.3038 58.836L27.1163 61.0235L26.0225 62.1172ZM30.3975 64.3047C30.1675 64.5345 29.8556 64.6634 29.5305 64.6633C29.2054 64.6632 28.8936 64.534 28.6637 64.3041C28.4338 64.0742 28.3047 63.7624 28.3046 63.4373C28.3045 63.1122 28.4335 62.8003 28.6632 62.5703L30.8507 60.3828C31.0808 60.153 31.3926 60.0241 31.7177 60.0242C32.0429 60.0243 32.3546 60.1535 32.5845 60.3834C32.8144 60.6133 32.9436 60.9251 32.9437 61.2502C32.9438 61.5753 32.8148 61.8872 32.585 62.1172L30.3975 64.3047ZM34.7725 65.3985C34.6587 65.5124 34.5235 65.6027 34.3747 65.6644C34.2259 65.726 34.0664 65.7577 33.9054 65.7577C33.7443 65.7577 33.5848 65.726 33.4361 65.6644C33.2873 65.6027 33.1521 65.5124 33.0382 65.3985L32.7178 65.0781L34.132 63.664C34.2389 63.5567 34.3386 63.4423 34.4304 63.3218L34.7726 63.664C35.0022 63.8942 35.1312 64.2061 35.1312 64.5312C35.1312 64.8564 35.0022 65.1683 34.7725 65.3985Z" fill="#8FBA44"/>
    <path d="M14.2188 28.4375H27.3438V30.625H14.2188V28.4375Z" fill="#8FBA44"/>
    <path d="M17.5 32.8125H22.9688V35H17.5V32.8125Z" fill="#8FBA44"/>
    <path d="M42.6562 28.4375H55.7812V30.625H42.6562V28.4375Z" fill="#8FBA44"/>
    <path d="M45.9375 32.8125H51.4062V35H45.9375V32.8125Z" fill="#8FBA44"/>
    <path d="M27.3438 7.65625H42.6562V9.84375H27.3438V7.65625Z" fill="#8FBA44"/>
    <path d="M14.2188 13.125H55.7812V15.3125H14.2188V13.125Z" fill="#8FBA44"/>
    <path d="M14.2188 17.5H55.7812V19.6875H14.2188V17.5Z" fill="#8FBA44"/>
    <path d="M14.2188 21.875H37.1875V24.0625H14.2188V21.875Z" fill="#8FBA44"/>
</svg>
